<svg version="1.1" xmlns="http://www.w3.org/2000/svg" xmlns:xlink="http://www.w3.org/1999/xlink" width="523.9133911132812" height="100.16514587402344"><defs></defs><g transform="translate(-281.3953857421875,67.55708312988281)"><rect fill="rgb(255,255,255)" stroke="none" x="0" y="0" width="523.9133911132812" height="100.16514587402344" fill-opacity="0" transform="translate(281.3953857421875,-67.55708312988281)"></rect><g transform="translate(267.68039240014235,50.604662645787315) rotate(-5,0,0) translate(-267.68039240014235,-50.604662645787315) matrix(1,0,-0.24932800284318068,1,267.68039240014235,50.604662645787315)"><path fill="rgb(255,255,255)" fill-opacity="1" d="M34.81-47.30L34.81-47.30Q34.18-46.40 33.19-45.08Q32.20-43.75 31.14-42.43Q30.09-41.10 29.08-40.00Q28.07-38.90 27.39-38.45L27.39-38.45Q26.94-38.18 26.36-38.00Q25.78-37.82 25.17-37.78Q24.56-37.73 24.02-37.85Q23.49-37.96 23.08-38.23L23.08-38.23Q22.68-38.54 22.41-39.13L22.41-39.13Q22.18-39.62 21.98-40.43Q21.78-41.24 21.82-42.45L21.82-42.45Q20.74-40.65 19.44-39.69Q18.14-38.72 16.97-38.27L16.97-38.27Q15.62-37.78 14.28-37.69L14.28-37.69Q13.65-37.69 12.93-38.12Q12.21-38.54 11.72-39.46Q11.22-40.38 11.09-41.84Q10.95-43.30 11.45-45.33L11.45-45.33Q12.07-48.07 13.45-50.31Q14.82-52.56 16.43-54.15Q18.05-55.75 19.62-56.56Q21.19-57.36 22.23-57.27L22.23-57.27Q23.44-57.05 24.20-56.56L24.20-56.56Q24.83-56.11 25.03-55.23Q25.24-54.35 24.29-52.92L24.29-52.92Q24.92-53.05 25.35-53.10Q25.78-53.14 26.00-53.14L26.00-53.14Q26.27-53.14 26.36-53.10L26.36-53.10Q26.41-53.01 26.41-52.72Q26.41-52.42 26.27-51.66Q26.14-50.90 25.87-49.59Q25.60-48.29 25.15-46.22L25.15-46.22Q25.06-45.82 24.99-45.48Q24.92-45.15 24.86-44.81Q24.79-44.47 24.70-44.02Q24.61-43.57 24.47-42.90L24.47-42.90Q24.43-42.50 24.45-42.02Q24.47-41.55 24.61-41.15Q24.74-40.74 25.03-40.50Q25.33-40.25 25.87-40.25L25.87-40.25Q26.32-40.25 27.03-40.81Q27.75-41.37 28.56-42.25Q29.37-43.12 30.25-44.18Q31.12-45.24 31.89-46.22Q32.65-47.21 33.26-47.98Q33.86-48.74 34.13-49.10L34.13-49.10Q34.49-49.50 34.85-49.57Q35.21-49.64 35.39-49.37Q35.57-49.10 35.46-48.56Q35.34-48.02 34.81-47.30ZM21.64-45.33L21.64-45.33Q21.87-46.22 22.18-47.44Q22.50-48.65 22.72-49.77Q22.95-50.90 23.06-51.64Q23.17-52.38 22.99-52.33L22.99-52.33Q22.77-52.29 22.50-52.20L22.50-52.20Q22.27-52.11 21.91-52.06Q21.55-52.02 21.19-51.93L21.19-51.93Q21.55-52.65 21.62-53.12Q21.69-53.59 21.64-53.86L21.64-53.86Q21.60-54.17 21.46-54.35L21.46-54.35Q20.97-54.76 19.73-53.70Q18.50-52.65 16.88-49.82L16.88-49.82Q16.21-48.65 15.80-47.32Q15.40-46.00 15.24-44.83Q15.08-43.66 15.17-42.79Q15.26-41.91 15.53-41.64L15.53-41.64Q16.03-41.15 16.66-41.17Q17.29-41.19 17.94-41.53Q18.59-41.87 19.24-42.41Q19.89-42.94 20.41-43.53Q20.92-44.11 21.26-44.61Q21.60-45.10 21.64-45.33ZM45.14-37.24L45.14-37.24Q44.10-37.24 43.36-37.62Q42.62-38.00 42.17-38.63Q41.72-39.26 41.59-40.09Q41.45-40.92 41.68-41.87L41.68-41.87Q41.81-42.50 42.13-43.55Q42.44-44.61 42.78-45.84Q43.12-47.08 43.41-48.31Q43.70-49.55 43.79-50.56Q43.88-51.57 43.70-52.22Q43.52-52.87 42.94-52.87L42.94-52.87Q42.22-52.87 41.45-52.40Q40.69-51.93 39.90-51.12Q39.12-50.31 38.33-49.26Q37.55-48.20 36.78-47.08L36.78-47.08Q36.38-45.55 36.11-44.40Q35.84-43.26 35.64-42.34Q35.43-41.42 35.25-40.72Q35.07-40.02 34.94-39.40L34.94-39.40Q34.81-38.95 34.13-38.52Q33.46-38.09 32.69-37.82Q31.93-37.55 31.37-37.55Q30.81-37.55 30.90-37.96L30.90-37.96Q30.94-38.23 31.19-39.17Q31.44-40.11 31.77-41.39Q32.11-42.67 32.47-44.11Q32.83-45.55 33.14-46.85L33.14-46.85Q33.37-47.89 33.64-49.14L33.64-49.14Q33.86-50.22 34.20-51.66Q34.54-53.10 34.99-54.80L34.99-54.80Q35.30-55.07 35.64-55.23Q35.97-55.39 36.33-55.48L36.33-55.48Q36.69-55.61 37.10-55.66L37.10-55.66Q37.46-55.66 37.82-55.61L37.82-55.61Q38.13-55.57 38.47-55.46Q38.80-55.34 39.07-55.12L39.07-55.12Q38.94-54.80 38.76-54.24Q38.58-53.68 38.40-53.05L38.40-53.05Q38.22-52.33 37.95-51.57L37.95-51.57Q38.53-52.38 39.28-53.21Q40.02-54.04 40.89-54.71Q41.77-55.39 42.76-55.81Q43.74-56.24 44.78-56.24L44.78-56.24Q45.63-56.24 46.31-55.75Q46.98-55.25 47.36-54.38Q47.74-53.50 47.81-52.29Q47.88-51.08 47.47-49.64L47.47-49.64L46.98-47.66Q46.75-46.72 46.42-45.44Q46.08-44.16 45.59-42.63L45.59-42.63Q45.32-41.64 45.38-40.92Q45.45-40.20 46.26-40.20L46.26-40.20Q47.07-40.20 48.30-41.19Q49.54-42.18 50.80-43.57Q52.06-44.97 53.18-46.43Q54.30-47.89 54.89-48.78L54.89-48.78Q55.29-49.37 55.65-49.55Q56.01-49.73 56.21-49.59Q56.41-49.46 56.41-48.99Q56.41-48.51 56.05-47.80L56.05-47.80Q55.74-47.17 55.09-46.13Q54.44-45.10 53.54-43.93Q52.64-42.76 51.61-41.57Q50.57-40.38 49.45-39.42Q48.33-38.45 47.23-37.85Q46.13-37.24 45.14-37.24ZM67.33-46.94L67.33-46.94Q67.10-45.55 66.90-44.29Q66.70-43.03 66.66-42.27L66.66-42.27Q66.61-41.15 67.06-40.65Q67.51-40.16 68.05-40.16L68.05-40.16Q68.68-40.16 69.60-40.79Q70.52-41.42 71.55-42.36Q72.58-43.30 73.62-44.43Q74.65-45.55 75.53-46.56Q76.40-47.57 77.01-48.34Q77.62-49.10 77.84-49.32L77.84-49.32Q78.11-49.59 78.40-49.64Q78.69-49.68 78.87-49.55Q79.05-49.41 79.05-49.05Q79.05-48.69 78.69-48.16L78.69-48.16Q78.16-47.30 77.30-46.16Q76.45-45.01 75.41-43.80Q74.38-42.59 73.24-41.42Q72.09-40.25 70.95-39.35Q69.80-38.45 68.74-37.89Q67.69-37.33 66.83-37.33L66.83-37.33Q66.21-37.33 65.64-37.69Q65.08-38.05 64.63-38.63Q64.18-39.22 63.94-39.93Q63.69-40.65 63.74-41.37L63.74-41.37Q63.78-41.69 63.87-42.45L63.87-42.45Q61.98-40.34 60.07-39.10Q58.16-37.87 56.41-37.87L56.41-37.87Q55.78-37.87 55.07-38.18Q54.35-38.50 53.78-39.22Q53.22-39.93 52.86-41.10Q52.50-42.27 52.59-43.93L52.59-43.93Q52.73-46.54 53.63-48.87Q54.53-51.21 55.90-52.94Q57.27-54.67 59.00-55.68Q60.73-56.69 62.48-56.69L62.48-56.69Q63.24-56.69 63.87-56.31Q64.50-55.93 64.95-55.32Q65.40-54.71 65.69-54.00Q65.98-53.28 66.12-52.65L66.12-52.65Q66.43-53.95 66.70-55.21Q66.97-56.47 67.24-57.59L67.24-57.59Q67.69-59.25 68.18-61.18L68.18-61.18Q68.63-62.84 69.22-65.00Q69.80-67.16 70.52-69.54L70.52-69.54Q70.97-69.90 71.37-70.08Q71.78-70.26 72.14-70.35L72.14-70.35Q72.54-70.48 72.90-70.48L72.90-70.48Q73.35-70.48 73.71-70.37Q74.07-70.26 74.31-69.79Q74.56-69.31 74.65-68.37Q74.74-67.43 74.65-65.81L74.65-65.81Q74.56-63.83 73.95-61.50Q73.35-59.16 72.36-56.67Q71.37-54.17 70.09-51.68Q68.81-49.19 67.33-46.94ZM64.68-46.36L64.68-46.36Q64.86-47.21 65.02-48.07Q65.17-48.92 65.40-49.82L65.40-49.82Q65.31-49.77 65.24-49.73Q65.17-49.68 65.08-49.64L65.08-49.64Q64.59-49.41 64.41-49.66Q64.23-49.91 64.23-50.45L64.23-50.45Q64.23-50.72 64.18-51.41Q64.14-52.11 63.94-52.85Q63.74-53.59 63.33-54.15Q62.93-54.71 62.21-54.71L62.21-54.71Q61.17-54.71 60.10-53.66Q59.02-52.60 58.07-51.10Q57.13-49.59 56.50-47.89Q55.87-46.18 55.78-44.83L55.78-44.83Q55.69-42.67 56.32-41.73Q56.95-40.79 58.03-40.79L58.03-40.79Q58.84-40.79 59.80-41.42Q60.77-42.05 61.69-42.94Q62.61-43.84 63.40-44.79Q64.18-45.73 64.68-46.36ZM111.22-47.30L111.22-47.30Q110.59-46.40 109.60-45.08Q108.61-43.75 107.56-42.43Q106.50-41.10 105.49-40.00Q104.48-38.90 103.81-38.45L103.81-38.45Q103.36-38.18 102.77-38.00Q102.19-37.82 101.58-37.78Q100.98-37.73 100.44-37.85Q99.90-37.96 99.49-38.23L99.49-38.23Q99.09-38.54 98.82-39.13L98.82-39.13Q98.59-39.62 98.39-40.43Q98.19-41.24 98.24-42.45L98.24-42.45Q97.16-40.65 95.85-39.69Q94.55-38.72 93.38-38.27L93.38-38.27Q92.04-37.78 90.69-37.69L90.69-37.69Q90.06-37.69 89.34-38.12Q88.62-38.54 88.13-39.46Q87.63-40.38 87.50-41.84Q87.36-43.30 87.86-45.33L87.86-45.33Q88.49-48.07 89.86-50.31Q91.23-52.56 92.84-54.15Q94.46-55.75 96.03-56.56Q97.61-57.36 98.64-57.27L98.64-57.27Q99.85-57.05 100.62-56.56L100.62-56.56Q101.24-56.11 101.45-55.23Q101.65-54.35 100.71-52.92L100.71-52.92Q101.33-53.05 101.76-53.10Q102.19-53.14 102.41-53.14L102.41-53.14Q102.68-53.14 102.77-53.10L102.77-53.10Q102.82-53.01 102.82-52.72Q102.82-52.42 102.68-51.66Q102.55-50.90 102.28-49.59Q102.01-48.29 101.56-46.22L101.56-46.22Q101.47-45.82 101.40-45.48Q101.33-45.15 101.27-44.81Q101.20-44.47 101.11-44.02Q101.02-43.57 100.89-42.90L100.89-42.90Q100.84-42.50 100.86-42.02Q100.89-41.55 101.02-41.15Q101.16-40.74 101.45-40.50Q101.74-40.25 102.28-40.25L102.28-40.25Q102.73-40.25 103.45-40.81Q104.16-41.37 104.97-42.25Q105.78-43.12 106.66-44.18Q107.53-45.24 108.30-46.22Q109.06-47.21 109.67-47.98Q110.27-48.74 110.54-49.10L110.54-49.10Q110.90-49.50 111.26-49.57Q111.62-49.64 111.80-49.37Q111.98-49.10 111.87-48.56Q111.76-48.02 111.22-47.30ZM98.06-45.33L98.06-45.33Q98.28-46.22 98.59-47.44Q98.91-48.65 99.13-49.77Q99.36-50.90 99.47-51.64Q99.58-52.38 99.40-52.33L99.40-52.33Q99.18-52.29 98.91-52.20L98.91-52.20Q98.68-52.11 98.32-52.06Q97.97-52.02 97.61-51.93L97.61-51.93Q97.97-52.65 98.03-53.12Q98.10-53.59 98.06-53.86L98.06-53.86Q98.01-54.17 97.88-54.35L97.88-54.35Q97.38-54.76 96.15-53.70Q94.91-52.65 93.29-49.82L93.29-49.82Q92.62-48.65 92.22-47.32Q91.81-46.00 91.65-44.83Q91.50-43.66 91.59-42.79Q91.68-41.91 91.95-41.64L91.95-41.64Q92.44-41.15 93.07-41.17Q93.70-41.19 94.35-41.53Q95.00-41.87 95.65-42.41Q96.30-42.94 96.82-43.53Q97.34-44.11 97.67-44.61Q98.01-45.10 98.06-45.33ZM107.53-39.08L107.53-39.08Q109.51-47.39 110.70-52.42Q111.89-57.45 112.52-60.10L112.52-60.10Q113.24-63.25 113.51-64.46L113.51-64.46Q113.64-65.32 113.73-66.12L113.73-66.12Q113.82-66.84 113.82-67.61Q113.82-68.37 113.69-69.00L113.69-69.00Q114.05-69.22 114.47-69.36Q114.90-69.49 115.31-69.58L115.31-69.58Q115.80-69.72 116.29-69.81L116.29-69.81Q116.79-69.90 117.19-69.90L117.19-69.90Q117.55-69.90 117.87-69.83Q118.18-69.76 118.27-69.54L118.27-69.54Q118.54-69.31 118.52-68.64Q118.49-67.97 118.41-67.25L118.41-67.25Q118.23-66.39 118.00-65.41L118.00-65.41Q117.46-63.47 116.52-59.84L116.52-59.84Q115.71-56.74 114.34-51.39Q112.97-46.04 110.90-37.91L110.90-37.91Q110.68-37.69 110.36-37.60Q110.05-37.51 109.78-37.51L109.78-37.51Q109.47-37.51 109.11-37.55L109.11-37.55Q108.79-37.64 108.48-37.82L108.48-37.82Q108.21-38.00 107.94-38.30Q107.67-38.59 107.53-39.08ZM141.67-46.13L141.67-46.13Q141.05-44.52 140.24-42.99Q139.43-41.46 138.44-40.25Q137.45-39.04 136.33-38.32Q135.21-37.60 133.90-37.60L133.90-37.60Q131.79-37.60 130.71-39.01Q129.64-40.43 129.23-42.50L129.23-42.50Q128.60-41.55 127.88-40.61Q127.16-39.67 126.36-38.95Q125.55-38.23 124.69-37.78Q123.84-37.33 122.99-37.33L122.99-37.33Q121.82-37.33 121.01-37.82Q120.20-38.32 119.69-39.19Q119.17-40.07 118.94-41.22Q118.72-42.36 118.72-43.66L118.72-43.66L118.72-44.20Q118.72-45.86 118.99-47.62Q119.26-49.37 119.60-50.85Q119.93-52.33 120.29-53.43Q120.65-54.53 120.83-54.89L120.83-54.89Q121.15-55.34 122.20-55.77Q123.26-56.20 124.29-56.11L124.29-56.11Q124.78-56.06 124.81-55.70Q124.83-55.34 124.69-54.80L124.69-54.80Q124.51-54.04 124.07-52.51Q123.62-50.99 123.14-49.19Q122.67-47.39 122.31-45.64Q121.95-43.89 121.95-42.72L121.95-42.72Q121.95-41.28 122.40-40.65Q122.85-40.02 123.80-40.02L123.80-40.02Q124.92-40.02 126.29-41.28Q127.66-42.54 128.96-45.55L128.96-45.55Q128.92-45.82 128.92-46.09Q128.92-46.36 128.92-46.67L128.92-46.67Q128.92-48.69 129.07-50.54Q129.23-52.38 129.70-53.77Q130.17-55.16 131.01-55.97Q131.84-56.78 133.18-56.78L133.18-56.78Q133.72-56.78 134.08-56.47Q134.44-56.15 134.44-55.57L134.44-55.57Q134.44-54.13 133.43-51.50Q132.42-48.87 131.03-45.73L131.03-45.73Q130.89-45.55 130.85-45.37L130.85-45.37Q130.98-44.52 131.19-43.57Q131.39-42.63 131.75-41.84Q132.11-41.06 132.60-40.54Q133.09-40.02 133.77-40.02L133.77-40.02Q134.76-40.02 135.59-40.97Q136.42-41.91 137.07-43.26Q137.72-44.61 138.22-46.11Q138.71-47.62 138.98-48.78L138.98-48.78Q138.84-49.28 138.75-49.75Q138.66-50.22 138.66-50.85L138.66-50.85Q138.66-52.24 139.07-53.23Q139.47-54.22 140.12-54.87Q140.78-55.52 141.52-55.84Q142.26-56.15 142.89-56.15L142.89-56.15Q144.01-56.15 144.01-55.16L144.01-55.16Q144.01-54.44 143.65-52.67Q143.29-50.90 142.62-48.65L142.62-48.65Q143.43-48.29 144.68-48.29L144.68-48.29Q145.85-48.29 146.84-48.58Q147.83-48.87 148.64-49.32Q149.45-49.77 150.12-50.31Q150.79-50.85 151.42-51.34L151.42-51.34Q151.92-51.70 152.23-51.39Q152.55-51.08 152.14-50.40L152.14-50.40Q151.78-49.82 150.91-49.05Q150.03-48.29 148.79-47.59Q147.56-46.90 146.05-46.43Q144.55-45.95 142.89-45.95L142.89-45.95Q142.62-45.95 142.30-46.00Q141.99-46.04 141.67-46.13ZM171.05-47.30L171.05-47.30Q170.42-46.40 169.44-45.08Q168.45-43.75 167.39-42.43Q166.34-41.10 165.33-40.00Q164.32-38.90 163.64-38.45L163.64-38.45Q163.19-38.18 162.61-38.00Q162.02-37.82 161.42-37.78Q160.81-37.73 160.27-37.85Q159.73-37.96 159.33-38.23L159.33-38.23Q158.92-38.54 158.66-39.13L158.66-39.13Q158.43-39.62 158.23-40.43Q158.03-41.24 158.07-42.45L158.07-42.45Q156.99-40.65 155.69-39.69Q154.39-38.72 153.22-38.27L153.22-38.27Q151.87-37.78 150.52-37.69L150.52-37.69Q149.90-37.69 149.18-38.12Q148.46-38.54 147.96-39.46Q147.47-40.38 147.33-41.84Q147.20-43.30 147.69-45.33L147.69-45.33Q148.32-48.07 149.69-50.31Q151.06-52.56 152.68-54.15Q154.30-55.75 155.87-56.56Q157.44-57.36 158.48-57.27L158.48-57.27Q159.69-57.05 160.45-56.56L160.45-56.56Q161.08-56.11 161.28-55.23Q161.49-54.35 160.54-52.92L160.54-52.92Q161.17-53.05 161.60-53.10Q162.02-53.14 162.25-53.14L162.25-53.14Q162.52-53.14 162.61-53.10L162.61-53.10Q162.65-53.01 162.65-52.72Q162.65-52.42 162.52-51.66Q162.38-50.90 162.11-49.59Q161.84-48.29 161.40-46.22L161.40-46.22Q161.31-45.82 161.24-45.48Q161.17-45.15 161.10-44.81Q161.04-44.47 160.95-44.02Q160.86-43.57 160.72-42.90L160.72-42.90Q160.68-42.50 160.70-42.02Q160.72-41.55 160.86-41.15Q160.99-40.74 161.28-40.50Q161.57-40.25 162.11-40.25L162.11-40.25Q162.56-40.25 163.28-40.81Q164.00-41.37 164.81-42.25Q165.62-43.12 166.49-44.18Q167.37-45.24 168.13-46.22Q168.90-47.21 169.50-47.98Q170.11-48.74 170.38-49.10L170.38-49.10Q170.74-49.50 171.10-49.57Q171.46-49.64 171.64-49.37Q171.82-49.10 171.70-48.56Q171.59-48.02 171.05-47.30ZM157.89-45.33L157.89-45.33Q158.12-46.22 158.43-47.44Q158.74-48.65 158.97-49.77Q159.19-50.90 159.31-51.64Q159.42-52.38 159.24-52.33L159.24-52.33Q159.01-52.29 158.74-52.20L158.74-52.20Q158.52-52.11 158.16-52.06Q157.80-52.02 157.44-51.93L157.44-51.93Q157.80-52.65 157.87-53.12Q157.94-53.59 157.89-53.86L157.89-53.86Q157.85-54.17 157.71-54.35L157.71-54.35Q157.22-54.76 155.98-53.70Q154.75-52.65 153.13-49.82L153.13-49.82Q152.46-48.65 152.05-47.32Q151.65-46.00 151.49-44.83Q151.33-43.66 151.42-42.79Q151.51-41.91 151.78-41.64L151.78-41.64Q152.28-41.15 152.91-41.17Q153.53-41.19 154.19-41.53Q154.84-41.87 155.49-42.41Q156.14-42.94 156.66-43.53Q157.17-44.11 157.51-44.61Q157.85-45.10 157.89-45.33ZM179.86-54.89L179.86-54.89Q180.44-55.34 181.00-55.59Q181.57-55.84 182.01-55.93L182.01-55.93Q182.51-56.06 183.00-56.02L183.00-56.02Q184.22-55.93 184.51-55.25Q184.80-54.58 184.57-53.10L184.57-53.10Q184.44-52.33 184.04-51.17Q183.63-50.00 183.09-48.31Q182.55-46.63 181.95-44.47Q181.34-42.32 180.80-39.62L180.80-39.62Q180.26-37.42 179.63-34.54L179.63-34.54Q179.09-32.03 178.35-28.48Q177.61-24.93 176.76-20.35L176.76-20.35Q176.53-19.23 175.79-19.05Q175.05-18.87 174.24-19.23L174.24-19.23Q173.93-19.41 173.66-19.63L173.66-19.63Q173.43-19.85 173.16-20.15Q172.90-20.44 172.72-20.93L172.72-20.93Q173.75-24.71 174.53-27.81Q175.32-30.91 175.95-33.20L175.95-33.20Q176.62-35.85 177.21-37.96L177.21-37.96Q177.43-38.90 177.63-39.82Q177.84-40.74 178.06-41.64L178.06-41.64Q177.48-40.70 176.80-39.84Q176.13-38.99 175.32-38.36Q174.51-37.73 173.59-37.40Q172.67-37.06 171.68-37.19L171.68-37.19Q169.26-37.51 168.25-38.99Q167.24-40.47 167.37-42.85L167.37-42.85Q167.41-43.80 167.64-44.92Q167.86-46.04 168.13-47.08Q168.40-48.11 168.65-48.94Q168.90-49.77 169.03-50.13L169.03-50.13Q169.57-51.84 169.82-53.05Q170.07-54.26 169.44-55.07L169.44-55.07Q170.07-55.48 170.63-55.63Q171.19-55.79 171.64-55.88L171.64-55.88Q172.13-55.93 172.63-55.88L172.63-55.88Q173.84-55.70 174.04-54.98Q174.24-54.26 173.88-52.83L173.88-52.83Q173.70-52.06 173.30-50.87Q172.90-49.68 172.45-48.42Q172.00-47.17 171.64-46.11Q171.28-45.06 171.23-44.61L171.23-44.61Q170.83-42.59 171.19-41.48Q171.55-40.38 172.76-40.38L172.76-40.38Q173.34-40.38 174.06-40.90Q174.78-41.42 175.52-42.27Q176.26-43.12 176.98-44.22Q177.70-45.33 178.31-46.45Q178.91-47.57 179.39-48.65Q179.86-49.73 180.08-50.58L180.08-50.58Q180.40-52.24 180.49-53.19Q180.58-54.13 179.86-54.89ZM193.07-39.89L193.07-39.89Q193.33-39.71 193.76-39.71Q194.19-39.71 194.61-39.89Q195.04-40.07 195.42-40.38Q195.81-40.70 195.99-41.19L195.99-41.19Q196.16-41.69 195.99-42.61Q195.81-43.53 195.42-44.58Q195.04-45.64 194.59-46.72Q194.14-47.80 193.83-48.69L193.83-48.69Q193.56-49.37 193.38-49.95L193.38-49.95Q193.20-50.45 193.04-50.92Q192.89-51.39 192.80-51.57L192.80-51.57Q192.57-51.21 192.01-50.40Q191.45-49.59 190.80-48.72Q190.15-47.84 189.56-47.10Q188.98-46.36 188.75-46.09L188.75-46.09Q188.39-45.68 188.06-45.62Q187.72-45.55 187.49-45.75Q187.27-45.95 187.25-46.34Q187.23-46.72 187.58-47.26L187.58-47.26Q187.85-47.62 188.39-48.40Q188.93-49.19 189.47-50.02Q190.01-50.85 190.46-51.50Q190.91-52.15 190.95-52.29L190.95-52.29Q191.04-52.65 190.71-53.23Q190.37-53.82 190.59-54.58L190.59-54.58Q190.77-55.21 191.40-56.04Q192.03-56.87 192.89-57.54Q193.74-58.22 194.64-58.55Q195.54-58.89 196.25-58.53L196.25-58.53Q196.84-58.17 197.20-57.75Q197.56-57.32 197.47-56.87L197.47-56.87Q197.38-56.65 197.20-56.29L197.20-56.29Q197.02-55.93 196.66-55.41Q196.30-54.89 195.63-54.09L195.63-54.09Q195.76-53.05 196.01-52.20Q196.25-51.34 196.48-50.72L196.48-50.72Q196.75-49.95 197.06-49.32L197.06-49.32Q197.47-48.51 197.92-47.66Q198.37-46.81 198.73-45.98Q199.08-45.15 199.31-44.43Q199.53-43.71 199.44-43.21L199.44-43.21Q199.31-42.45 198.66-41.37Q198.01-40.29 197.04-39.28Q196.07-38.27 194.84-37.55Q193.60-36.84 192.26-36.84L192.26-36.84Q191.31-36.84 190.44-37.42Q189.56-38.00 188.95-38.79Q188.35-39.58 188.06-40.34Q187.76-41.10 187.99-41.51L187.99-41.51Q188.26-42.05 188.48-42.36Q188.71-42.67 189.16-43.08L189.16-43.08Q189.34-43.21 189.61-43.39L189.61-43.39Q189.83-43.53 190.24-43.66Q190.64-43.80 191.18-43.98L191.18-43.98Q191.63-42.59 191.99-41.80Q192.35-41.01 192.57-40.56L192.57-40.56Q192.84-40.07 193.07-39.89ZM226.08-64.10L226.08-64.10Q225.41-61.41 224.58-58.96Q223.75-56.51 222.87-54.38Q221.99-52.24 221.12-50.49Q220.24-48.74 219.57-47.44L219.57-47.44Q219.12-44.20 219.57-42.23Q220.02-40.25 221.32-40.25L221.32-40.25Q222.40-40.25 223.43-41.24Q224.47-42.23 225.27-43.66Q226.08-45.10 226.64-46.74Q227.21-48.38 227.34-49.68L227.34-49.68Q226.49-49.91 225.90-50.47Q225.32-51.03 225.32-51.97L225.32-51.97Q225.32-52.60 225.68-53.16Q226.04-53.73 226.53-54.13Q227.03-54.53 227.61-54.76Q228.19-54.98 228.69-54.98L228.69-54.98Q229.45-54.98 229.99-54.02Q230.53-53.05 230.71-51.57L230.71-51.57Q232.51-51.61 234.48-52.11Q236.46-52.60 238.21-53.37L238.21-53.37Q238.71-53.59 239.02-53.50Q239.33-53.41 239.45-53.14Q239.56-52.87 239.42-52.54Q239.29-52.20 238.89-52.02L238.89-52.02Q237.85-51.43 236.75-50.96Q235.65-50.49 234.57-50.18Q233.49-49.86 232.51-49.68Q231.52-49.50 230.71-49.50L230.71-49.50Q230.53-47.71 229.59-45.62Q228.64-43.53 227.30-41.75Q225.95-39.98 224.31-38.81Q222.67-37.64 221.10-37.64L221.10-37.64Q220.60-37.64 219.79-37.78Q218.99-37.91 218.22-38.72Q217.46-39.53 216.92-41.30Q216.38-43.08 216.47-46.36L216.47-46.36Q216.51-48.56 216.96-51.03Q217.41-53.50 218.04-55.97Q218.67-58.44 219.46-60.76Q220.24-63.07 220.96-64.93Q221.68-66.80 222.29-68.06Q222.89-69.31 223.21-69.67L223.21-69.67Q223.61-70.17 224.15-70.41Q224.69-70.66 225.21-70.77Q225.72-70.89 226.17-70.84Q226.62-70.80 226.80-70.71L226.80-70.71Q227.07-70.53 226.96-68.73Q226.85-66.93 226.08-64.10ZM255.24-47.71L255.24-47.71Q253.89-45.73 252.18-43.87Q250.48-42.00 248.57-40.54Q246.66-39.08 244.66-38.18Q242.66-37.28 240.77-37.28L240.77-37.28Q239.78-37.28 238.64-37.76Q237.49-38.23 236.55-39.22Q235.61-40.20 235.04-41.78Q234.48-43.35 234.71-45.59L234.71-45.59Q234.89-47.44 235.85-49.48Q236.82-51.52 238.23-53.23Q239.65-54.94 241.42-56.06Q243.20-57.18 244.99-57.18L244.99-57.18Q246.70-57.18 247.47-56.33Q248.23-55.48 248.14-54.22L248.14-54.22Q248.00-52.83 247.35-51.66Q246.70-50.49 245.80-49.55Q244.91-48.60 243.89-47.84Q242.88-47.08 241.99-46.45L241.99-46.45Q241.00-45.77 240.10-45.17Q239.20-44.56 238.53-44.07L238.53-44.07Q238.57-42.94 238.93-42.18Q239.29-41.42 239.83-40.95Q240.37-40.47 241.06-40.27Q241.76-40.07 242.48-40.07L242.48-40.07Q244.01-40.07 245.67-41.04Q247.33-42.00 248.93-43.37Q250.52-44.74 251.89-46.22Q253.26-47.71 254.16-48.78L254.16-48.78Q254.47-49.14 254.81-49.21Q255.15-49.28 255.35-49.12Q255.55-48.96 255.55-48.58Q255.55-48.20 255.24-47.71ZM243.74-54.62L243.74-54.62Q243.20-54.62 242.46-54.09Q241.72-53.55 241.00-52.54Q240.28-51.52 239.65-50.06Q239.02-48.60 238.71-46.72L238.71-46.72Q239.24-47.12 239.87-47.55Q240.50-47.98 241.13-48.47L241.13-48.47Q243.06-49.95 243.83-51.08Q244.59-52.20 244.68-53.01L244.68-53.01Q244.77-53.86 244.50-54.24Q244.23-54.62 243.74-54.62ZM251.33-39.08L251.33-39.08Q253.31-47.39 254.50-52.42Q255.69-57.45 256.32-60.10L256.32-60.10Q257.03-63.25 257.30-64.46L257.30-64.46Q257.44-65.32 257.53-66.12L257.53-66.12Q257.62-66.84 257.62-67.61Q257.62-68.37 257.48-69.00L257.48-69.00Q257.84-69.22 258.27-69.36Q258.70-69.49 259.10-69.58L259.10-69.58Q259.59-69.72 260.09-69.81L260.09-69.81Q260.58-69.90 260.99-69.90L260.99-69.90Q261.35-69.90 261.66-69.83Q261.98-69.76 262.07-69.54L262.07-69.54Q262.33-69.31 262.31-68.64Q262.29-67.97 262.20-67.25L262.20-67.25Q262.02-66.39 261.80-65.41L261.80-65.41Q261.26-63.47 260.31-59.84L260.31-59.84Q259.50-56.74 258.13-51.39Q256.76-46.04 254.70-37.91L254.70-37.91Q254.47-37.69 254.16-37.60Q253.84-37.51 253.57-37.51L253.57-37.51Q253.26-37.51 252.90-37.55L252.90-37.55Q252.59-37.64 252.27-37.82L252.27-37.82Q252.00-38.00 251.73-38.30Q251.46-38.59 251.33-39.08ZM271.95-64.82L271.95-64.82Q271.81-64.33 271.43-63.86Q271.05-63.38 270.58-63.09Q270.11-62.80 269.61-62.71Q269.12-62.62 268.80-62.89L268.80-62.89Q267.86-63.61 267.82-64.44Q267.77-65.27 268.22-66.01Q268.67-66.75 269.34-67.27Q270.02-67.79 270.51-67.88L270.51-67.88Q271.00-67.97 271.34-67.67Q271.68-67.38 271.86-66.91Q272.04-66.44 272.06-65.85Q272.08-65.27 271.95-64.82ZM265.75-55.25L265.75-55.25Q265.97-55.52 266.60-55.70Q267.23-55.88 267.91-55.99Q268.58-56.11 269.14-56.13Q269.70-56.15 269.79-56.11L269.79-56.11Q269.84-56.06 269.57-55.16Q269.30-54.26 268.89-53.05Q268.49-51.84 268.04-50.56Q267.59-49.28 267.37-48.47L267.37-48.47Q267.14-47.66 266.83-46.65Q266.51-45.64 266.27-44.67Q266.02-43.71 265.93-42.85Q265.84-42.00 266.06-41.55L266.06-41.55Q266.29-41.01 266.56-40.81Q266.83-40.61 267.14-40.61L267.14-40.61Q268.04-40.61 269.41-41.60Q270.78-42.59 272.20-43.96Q273.61-45.33 274.82-46.74Q276.04-48.16 276.62-49.01L276.62-49.01Q276.98-49.46 277.36-49.59Q277.74-49.73 277.99-49.55Q278.24-49.37 278.26-48.96Q278.28-48.56 277.97-48.02L277.97-48.02Q277.25-46.76 275.86-45.03Q274.46-43.30 272.89-41.71Q271.32-40.11 269.81-38.99Q268.31-37.87 267.37-37.82L267.37-37.82Q266.60-37.78 265.86-38.07Q265.12-38.36 264.51-38.88Q263.91-39.40 263.50-40.09Q263.10-40.79 263.05-41.55L263.05-41.55Q262.92-42.67 263.05-44.63Q263.19-46.58 263.55-48.63Q263.91-50.67 264.47-52.51Q265.03-54.35 265.75-55.25ZM295.04-47.71L295.04-47.71Q293.69-45.73 291.98-43.87Q290.28-42.00 288.37-40.54Q286.46-39.08 284.46-38.18Q282.46-37.28 280.57-37.28L280.57-37.28Q279.58-37.28 278.44-37.76Q277.29-38.23 276.35-39.22Q275.41-40.20 274.85-41.78Q274.28-43.35 274.51-45.59L274.51-45.59Q274.69-47.44 275.65-49.48Q276.62-51.52 278.03-53.23Q279.45-54.94 281.22-56.06Q283.00-57.18 284.80-57.18L284.80-57.18Q286.50-57.18 287.27-56.33Q288.03-55.48 287.94-54.22L287.94-54.22Q287.81-52.83 287.15-51.66Q286.50-50.49 285.60-49.55Q284.71-48.60 283.70-47.84Q282.68-47.08 281.79-46.45L281.79-46.45Q280.80-45.77 279.90-45.17Q279.00-44.56 278.33-44.07L278.33-44.07Q278.37-42.94 278.73-42.18Q279.09-41.42 279.63-40.95Q280.17-40.47 280.86-40.27Q281.56-40.07 282.28-40.07L282.28-40.07Q283.81-40.07 285.47-41.04Q287.13-42.00 288.73-43.37Q290.32-44.74 291.69-46.22Q293.06-47.71 293.96-48.78L293.96-48.78Q294.27-49.14 294.61-49.21Q294.95-49.28 295.15-49.12Q295.35-48.96 295.35-48.58Q295.35-48.20 295.04-47.71ZM283.54-54.62L283.54-54.62Q283.00-54.62 282.26-54.09Q281.52-53.55 280.80-52.54Q280.08-51.52 279.45-50.06Q278.82-48.60 278.51-46.72L278.51-46.72Q279.05-47.12 279.67-47.55Q280.30-47.98 280.93-48.47L280.93-48.47Q282.86-49.95 283.63-51.08Q284.39-52.20 284.48-53.01L284.48-53.01Q284.57-53.86 284.30-54.24Q284.03-54.62 283.54-54.62ZM304.97-46.36L304.97-46.36Q303.80-44.65 302.56-43.03Q301.33-41.42 300.18-40.14Q299.04-38.86 298.07-38.07Q297.10-37.28 296.52-37.28L296.52-37.28Q295.13-37.28 294.25-38.61Q293.38-39.93 292.90-41.89Q292.43-43.84 292.32-46.07Q292.21-48.29 292.34-50.04L292.34-50.04Q292.52-51.79 292.75-52.85Q292.97-53.91 293.31-54.49Q293.65-55.07 294.12-55.34Q294.59-55.61 295.31-55.79L295.31-55.79Q295.62-55.88 296.03-55.93Q296.43-55.97 296.77-55.90Q297.10-55.84 297.28-55.61Q297.46-55.39 297.33-54.94L297.33-54.94Q297.24-54.53 297.04-53.75Q296.83-52.96 296.61-51.97Q296.39-50.99 296.18-49.91Q295.98-48.83 295.89-47.84L295.89-47.84Q295.76-46.13 295.89-44.85Q296.03-43.57 296.30-42.70Q296.57-41.82 296.88-41.37Q297.19-40.92 297.37-40.92L297.37-40.92Q297.60-40.92 298.20-41.53Q298.81-42.14 299.60-43.12Q300.38-44.11 301.26-45.42Q302.14-46.72 302.90-48.11L302.90-48.11Q302.63-48.83 302.67-49.82L302.67-49.82Q302.81-51.34 303.35-52.58Q303.89-53.82 304.58-54.67Q305.28-55.52 306.02-55.99Q306.76-56.47 307.35-56.47L307.35-56.47Q308.51-56.47 308.81-55.86Q309.10-55.25 309.01-54.62L309.01-54.62Q308.92-53.68 308.18-52.04Q307.44-50.40 306.27-48.47L306.27-48.47Q306.49-48.38 306.76-48.29Q307.03-48.20 307.39-48.20L307.39-48.20Q308.92-48.20 310.15-48.56Q311.39-48.92 312.31-49.41Q313.23-49.91 313.88-50.47Q314.53-51.03 314.94-51.39L314.94-51.39Q315.21-51.66 315.48-51.66Q315.75-51.66 315.93-51.52Q316.11-51.39 316.11-51.12Q316.11-50.85 315.84-50.54L315.84-50.54Q314.22-48.56 311.91-47.35Q309.59-46.13 306.49-46.13L306.49-46.13Q306.22-46.13 305.82-46.18Q305.41-46.22 304.97-46.36ZM331.83-47.71L331.83-47.71Q330.48-45.73 328.77-43.87Q327.07-42.00 325.16-40.54Q323.25-39.08 321.25-38.18Q319.25-37.28 317.36-37.28L317.36-37.28Q316.38-37.28 315.23-37.76Q314.08-38.23 313.14-39.22Q312.20-40.20 311.64-41.78Q311.07-43.35 311.30-45.59L311.30-45.59Q311.48-47.44 312.45-49.48Q313.41-51.52 314.83-53.23Q316.24-54.94 318.02-56.06Q319.79-57.18 321.59-57.18L321.59-57.18Q323.29-57.18 324.06-56.33Q324.82-55.48 324.73-54.22L324.73-54.22Q324.60-52.83 323.95-51.66Q323.29-50.49 322.40-49.55Q321.50-48.60 320.49-47.84Q319.48-47.08 318.58-46.45L318.58-46.45Q317.59-45.77 316.69-45.17Q315.79-44.56 315.12-44.07L315.12-44.07Q315.16-42.94 315.52-42.18Q315.88-41.42 316.42-40.95Q316.96-40.47 317.66-40.27Q318.35-40.07 319.07-40.07L319.07-40.07Q320.60-40.07 322.26-41.04Q323.92-42.00 325.52-43.37Q327.11-44.74 328.48-46.22Q329.85-47.71 330.75-48.78L330.75-48.78Q331.07-49.14 331.40-49.21Q331.74-49.28 331.94-49.12Q332.14-48.96 332.14-48.58Q332.14-48.20 331.83-47.71ZM320.33-54.62L320.33-54.62Q319.79-54.62 319.05-54.09Q318.31-53.55 317.59-52.54Q316.87-51.52 316.24-50.06Q315.61-48.60 315.30-46.72L315.30-46.72Q315.84-47.12 316.47-47.55Q317.09-47.98 317.72-48.47L317.72-48.47Q319.66-49.95 320.42-51.08Q321.18-52.20 321.27-53.01L321.27-53.01Q321.36-53.86 321.09-54.24Q320.82-54.62 320.33-54.62ZM351.37-64.82L351.37-64.82Q351.24-64.33 350.85-63.86Q350.47-63.38 350.00-63.09Q349.53-62.80 349.03-62.71Q348.54-62.62 348.23-62.89L348.23-62.89Q347.28-63.61 347.24-64.44Q347.19-65.27 347.64-66.01Q348.09-66.75 348.76-67.27Q349.44-67.79 349.93-67.88L349.93-67.88Q350.43-67.97 350.76-67.67Q351.10-67.38 351.28-66.91Q351.46-66.44 351.48-65.85Q351.50-65.27 351.37-64.82ZM345.17-55.25L345.17-55.25Q345.40-55.52 346.02-55.70Q346.65-55.88 347.33-55.99Q348.00-56.11 348.56-56.13Q349.12-56.15 349.21-56.11L349.21-56.11Q349.26-56.06 348.99-55.16Q348.72-54.26 348.32-53.05Q347.91-51.84 347.46-50.56Q347.01-49.28 346.79-48.47L346.79-48.47Q346.56-47.66 346.25-46.65Q345.93-45.64 345.69-44.67Q345.44-43.71 345.35-42.85Q345.26-42.00 345.49-41.55L345.49-41.55Q345.71-41.01 345.98-40.81Q346.25-40.61 346.56-40.61L346.56-40.61Q347.46-40.61 348.83-41.60Q350.20-42.59 351.62-43.96Q353.03-45.33 354.24-46.74Q355.46-48.16 356.04-49.01L356.04-49.01Q356.40-49.46 356.78-49.59Q357.16-49.73 357.41-49.55Q357.66-49.37 357.68-48.96Q357.70-48.56 357.39-48.02L357.39-48.02Q356.67-46.76 355.28-45.03Q353.89-43.30 352.31-41.71Q350.74-40.11 349.24-38.99Q347.73-37.87 346.79-37.82L346.79-37.82Q346.02-37.78 345.28-38.07Q344.54-38.36 343.94-38.88Q343.33-39.40 342.92-40.09Q342.52-40.79 342.48-41.55L342.48-41.55Q342.34-42.67 342.48-44.63Q342.61-46.58 342.97-48.63Q343.33-50.67 343.89-52.51Q344.45-54.35 345.17-55.25ZM367.45-37.24L367.45-37.24Q366.42-37.24 365.68-37.62Q364.94-38.00 364.49-38.63Q364.04-39.26 363.90-40.09Q363.77-40.92 363.99-41.87L363.99-41.87Q364.13-42.50 364.44-43.55Q364.76-44.61 365.09-45.84Q365.43-47.08 365.72-48.31Q366.01-49.55 366.10-50.56Q366.19-51.57 366.01-52.22Q365.83-52.87 365.25-52.87L365.25-52.87Q364.53-52.87 363.77-52.40Q363.00-51.93 362.22-51.12Q361.43-50.31 360.65-49.26Q359.86-48.20 359.10-47.08L359.10-47.08Q358.69-45.55 358.42-44.40Q358.15-43.26 357.95-42.34Q357.75-41.42 357.57-40.72Q357.39-40.02 357.25-39.40L357.25-39.40Q357.12-38.95 356.45-38.52Q355.77-38.09 355.01-37.82Q354.24-37.55 353.68-37.55Q353.12-37.55 353.21-37.96L353.21-37.96Q353.26-38.23 353.50-39.17Q353.75-40.11 354.09-41.39Q354.42-42.67 354.78-44.11Q355.14-45.55 355.46-46.85L355.46-46.85Q355.68-47.89 355.95-49.14L355.95-49.14Q356.18-50.22 356.51-51.66Q356.85-53.10 357.30-54.80L357.30-54.80Q357.61-55.07 357.95-55.23Q358.29-55.39 358.65-55.48L358.65-55.48Q359.01-55.61 359.41-55.66L359.41-55.66Q359.77-55.66 360.13-55.61L360.13-55.61Q360.44-55.57 360.78-55.46Q361.12-55.34 361.39-55.12L361.39-55.12Q361.25-54.80 361.07-54.24Q360.89-53.68 360.71-53.05L360.71-53.05Q360.53-52.33 360.26-51.57L360.26-51.57Q360.85-52.38 361.59-53.21Q362.33-54.04 363.21-54.71Q364.08-55.39 365.07-55.81Q366.06-56.24 367.09-56.24L367.09-56.24Q367.95-56.24 368.62-55.75Q369.29-55.25 369.68-54.38Q370.06-53.50 370.12-52.29Q370.19-51.08 369.79-49.64L369.79-49.64L369.29-47.66Q369.07-46.72 368.73-45.44Q368.40-44.16 367.90-42.63L367.90-42.63Q367.63-41.64 367.70-40.92Q367.77-40.20 368.57-40.20L368.57-40.20Q369.38-40.20 370.62-41.19Q371.85-42.18 373.11-43.57Q374.37-44.97 375.49-46.43Q376.62-47.89 377.20-48.78L377.20-48.78Q377.60-49.37 377.96-49.55Q378.32-49.73 378.53-49.59Q378.73-49.46 378.73-48.99Q378.73-48.51 378.37-47.80L378.37-47.80Q378.05-47.17 377.40-46.13Q376.75-45.10 375.85-43.93Q374.95-42.76 373.92-41.57Q372.89-40.38 371.76-39.42Q370.64-38.45 369.54-37.85Q368.44-37.24 367.45-37.24ZM400.07-54.89L400.07-54.89Q400.65-55.34 401.21-55.59Q401.77-55.84 402.22-55.93L402.22-55.93Q402.72-56.06 403.21-56.02L403.21-56.02Q404.42-55.93 404.71-55.25Q405.01-54.58 404.78-53.10L404.78-53.10Q404.65-52.33 404.24-51.17Q403.84-50.00 403.30-48.31Q402.76-46.63 402.15-44.47Q401.55-42.32 401.01-39.62L401.01-39.62Q400.47-37.42 399.84-34.54L399.84-34.54Q399.30-32.03 398.56-28.48Q397.82-24.93 396.97-20.35L396.97-20.35Q396.74-19.23 396.00-19.05Q395.26-18.87 394.45-19.23L394.45-19.23Q394.14-19.41 393.87-19.63L393.87-19.63Q393.64-19.85 393.37-20.15Q393.10-20.44 392.92-20.93L392.92-20.93Q393.96-24.71 394.74-27.81Q395.53-30.91 396.16-33.20L396.16-33.20Q396.83-35.85 397.41-37.96L397.41-37.96Q397.64-38.90 397.84-39.82Q398.04-40.74 398.27-41.64L398.27-41.64Q397.68-40.70 397.01-39.84Q396.34-38.99 395.53-38.36Q394.72-37.73 393.80-37.40Q392.88-37.06 391.89-37.19L391.89-37.19Q389.46-37.51 388.45-38.99Q387.44-40.47 387.58-42.85L387.58-42.85Q387.62-43.80 387.85-44.92Q388.07-46.04 388.34-47.08Q388.61-48.11 388.86-48.94Q389.10-49.77 389.24-50.13L389.24-50.13Q389.78-51.84 390.03-53.05Q390.27-54.26 389.64-55.07L389.64-55.07Q390.27-55.48 390.83-55.63Q391.40-55.79 391.84-55.88L391.84-55.88Q392.34-55.93 392.83-55.88L392.83-55.88Q394.05-55.70 394.25-54.98Q394.45-54.26 394.09-52.83L394.09-52.83Q393.91-52.06 393.51-50.87Q393.10-49.68 392.65-48.42Q392.20-47.17 391.84-46.11Q391.49-45.06 391.44-44.61L391.44-44.61Q391.04-42.59 391.40-41.48Q391.75-40.38 392.97-40.38L392.97-40.38Q393.55-40.38 394.27-40.90Q394.99-41.42 395.73-42.27Q396.47-43.12 397.19-44.22Q397.91-45.33 398.52-46.45Q399.12-47.57 399.59-48.65Q400.07-49.73 400.29-50.58L400.29-50.58Q400.60-52.24 400.69-53.19Q400.78-54.13 400.07-54.89ZM420.24-45.51L420.24-45.51Q419.79-43.80 419.02-42.32Q418.26-40.83 417.20-39.76Q416.15-38.68 414.82-38.07Q413.50-37.46 411.92-37.46L411.92-37.46Q410.08-37.46 409.03-38.25Q407.97-39.04 407.45-40.20Q406.94-41.37 406.83-42.76Q406.71-44.16 406.71-45.37L406.71-45.37Q406.71-46.22 406.92-47.26Q407.12-48.29 407.48-49.37Q407.84-50.45 408.40-51.52Q408.96-52.60 409.72-53.50L409.72-53.50Q409.99-54.26 410.55-54.85Q411.12-55.43 411.86-55.81Q412.60-56.20 413.45-56.40Q414.31-56.60 415.11-56.60L415.11-56.60Q415.25-56.60 415.36-56.56Q415.47-56.51 415.61-56.47L415.61-56.47Q416.19-56.42 417.07-56.02Q417.94-55.61 418.78-54.80Q419.61-54.00 420.19-52.76Q420.77-51.52 420.77-49.77L420.77-49.77Q420.77-49.41 420.73-48.90Q420.68-48.38 420.64-48.02L420.64-48.02Q421.67-48.42 422.80-49.01Q423.92-49.59 424.97-50.24Q426.03-50.90 426.93-51.57Q427.83-52.24 428.37-52.78L428.37-52.78Q428.82-53.19 429.13-53.23Q429.44-53.28 429.58-53.05Q429.71-52.83 429.62-52.42Q429.53-52.02 429.13-51.52L429.13-51.52Q428.91-51.26 427.98-50.45Q427.06-49.64 425.81-48.69Q424.55-47.75 423.07-46.85Q421.58-45.95 420.24-45.51ZM412.64-52.33L412.64-52.33Q412.51-51.93 412.51-51.48L412.51-51.48Q412.51-50.76 412.60-49.97Q412.69-49.19 413.05-48.56Q413.41-47.93 414.19-47.50Q414.98-47.08 416.37-47.08L416.37-47.08Q416.60-47.08 416.82-47.10Q417.05-47.12 417.27-47.17L417.27-47.17Q417.41-47.75 417.52-48.22Q417.63-48.69 417.63-49.05L417.63-49.05Q417.72-49.91 417.63-50.81Q417.54-51.70 417.29-52.45Q417.05-53.19 416.66-53.66Q416.28-54.13 415.74-54.13L415.74-54.13Q414.89-54.13 414.10-53.66Q413.32-53.19 412.64-52.33ZM409.77-44.43L409.77-44.43Q409.77-43.62 409.86-42.83Q409.95-42.05 410.22-41.44Q410.49-40.83 410.94-40.45Q411.39-40.07 412.10-40.07L412.10-40.07Q412.91-40.07 413.59-40.45Q414.26-40.83 414.80-41.44Q415.34-42.05 415.77-42.83Q416.19-43.62 416.51-44.47L416.51-44.47Q416.19-44.43 415.90-44.40Q415.61-44.38 415.25-44.38L415.25-44.38Q413.54-44.38 412.31-45.39Q411.07-46.40 410.40-47.98L410.40-47.98Q410.13-47.03 409.95-46.13Q409.77-45.24 409.77-44.43ZM430.61-37.64L430.61-37.64Q428.91-37.64 427.83-38.18Q426.75-38.72 426.14-39.51Q425.54-40.29 425.29-41.22Q425.04-42.14 425.04-42.90L425.04-42.90Q425.04-44.25 425.27-45.75Q425.49-47.26 425.81-48.54Q426.12-49.82 426.37-50.72Q426.61-51.61 426.70-51.84L426.70-51.84Q427.11-53.14 427.76-54.11Q428.41-55.07 429.58-55.43L429.58-55.43Q430.03-55.52 430.52-55.61L430.52-55.61Q430.93-55.66 431.35-55.66Q431.78-55.66 432.14-55.52L432.14-55.52Q430.93-52.42 430.23-50.36Q429.53-48.29 429.17-46.99L429.17-46.99Q428.77-45.51 428.68-44.61L428.68-44.61Q428.46-42.59 429.04-41.55Q429.62-40.52 431.42-40.52L431.42-40.52Q432.59-40.52 433.67-41.39Q434.74-42.27 435.64-43.66L435.64-43.66Q435.51-44.38 435.51-45.15L435.51-45.15Q435.51-46.58 435.76-47.95Q436.00-49.32 436.34-50.51Q436.68-51.70 437.06-52.65Q437.44-53.59 437.71-54.13L437.71-54.13Q438.20-55.21 438.61-55.46Q439.01-55.70 439.91-55.75L439.91-55.75Q440.27-55.79 440.52-55.77Q440.76-55.75 440.94-55.70L440.94-55.70Q441.48-55.57 441.48-55.16L441.48-55.16Q441.48-54.44 441.39-53.01Q441.30-51.57 440.85-50.04L440.85-50.04Q440.54-48.78 440.25-47.91Q439.96-47.03 439.69-46.43Q439.42-45.82 439.15-45.44Q438.88-45.06 438.65-44.74L438.65-44.74Q438.74-43.39 438.88-42.59Q439.01-41.78 439.21-41.35Q439.42-40.92 439.71-40.77Q440.00-40.61 440.36-40.61L440.36-40.61Q440.99-40.61 441.84-41.22Q442.70-41.82 443.62-42.74Q444.54-43.66 445.46-44.76Q446.38-45.86 447.14-46.85Q447.91-47.84 448.45-48.58Q448.99-49.32 449.12-49.50L449.12-49.50Q449.43-49.91 449.73-50.00Q450.02-50.09 450.20-49.93Q450.38-49.77 450.40-49.44Q450.42-49.10 450.20-48.69L450.20-48.69Q449.30-46.99 447.97-45.08Q446.65-43.17 445.14-41.55Q443.64-39.93 442.11-38.86Q440.58-37.78 439.24-37.78L439.24-37.78Q438.02-37.78 437.33-38.61Q436.63-39.44 436.14-41.01L436.14-41.01Q435.10-39.40 433.71-38.52Q432.32-37.64 430.61-37.64ZM444.90-38.59L444.90-38.59Q444.58-38.09 444.20-37.94Q443.82-37.78 443.53-37.89Q443.24-38.00 443.15-38.36Q443.06-38.72 443.32-39.26L443.32-39.26Q443.46-39.53 443.93-40.47Q444.40-41.42 445.05-42.74Q445.71-44.07 446.47-45.62Q447.23-47.17 447.93-48.56Q448.63-49.95 449.21-51.05Q449.79-52.15 450.06-52.65L450.06-52.65Q449.57-53.10 449.39-53.30Q449.21-53.50 449.12-54.17L449.12-54.17Q449.03-54.76 449.39-55.70Q449.75-56.65 450.33-57.52Q450.92-58.40 451.64-59.03Q452.35-59.66 453.03-59.66L453.03-59.66Q454.29-59.66 454.80-58.85Q455.32-58.04 455.41-57.18L455.41-57.18Q455.50-56.60 455.32-55.70Q455.14-54.80 454.65-54.09L454.65-54.09Q454.78-54.00 455.00-53.88Q455.23-53.77 455.72-53.77L455.72-53.77Q456.44-53.77 456.73-53.86Q457.03-53.95 457.66-53.95L457.66-53.95Q458.42-53.95 458.91-53.57Q459.41-53.19 459.72-52.63Q460.04-52.06 460.19-51.41Q460.35-50.76 460.40-50.22L460.40-50.22Q460.53-49.10 459.81-47.89Q459.09-46.67 458.06-45.24L458.06-45.24Q457.43-44.34 456.80-43.21Q456.17-42.09 456.26-41.19L456.26-41.19Q456.35-40.61 456.58-40.25Q456.80-39.89 457.83-39.89L457.83-39.89Q458.60-39.89 459.52-40.45Q460.44-41.01 461.41-41.89Q462.37-42.76 463.32-43.82Q464.26-44.88 465.07-45.89Q465.88-46.90 466.44-47.71Q467.00-48.51 467.27-48.87L467.27-48.87Q467.49-49.23 467.85-49.37Q468.21-49.50 468.48-49.37Q468.75-49.23 468.82-48.83Q468.89-48.42 468.48-47.75L468.48-47.75Q468.21-47.30 467.56-46.31Q466.91-45.33 465.99-44.11Q465.07-42.90 463.94-41.62Q462.82-40.34 461.59-39.28Q460.35-38.23 459.11-37.55Q457.88-36.88 456.76-36.88L456.76-36.88Q455.59-36.88 454.82-37.33Q454.06-37.78 453.59-38.43Q453.12-39.08 452.92-39.87Q452.71-40.65 452.76-41.33L452.76-41.33Q452.80-41.87 453.05-42.47Q453.30-43.08 453.63-43.73Q453.97-44.38 454.35-45.03Q454.74-45.68 455.05-46.31L455.05-46.31Q455.81-47.62 456.28-48.54Q456.76-49.46 456.76-50.09L456.76-50.09Q456.76-50.49 456.58-50.81Q456.40-51.12 455.99-51.12L455.99-51.12Q455.72-51.12 455.61-51.10Q455.50-51.08 455.39-51.08Q455.27-51.08 455.07-51.05Q454.87-51.03 454.47-51.03L454.47-51.03Q453.88-51.03 453.48-51.21Q453.07-51.39 452.71-51.48L452.71-51.48Q452.53-51.17 451.91-50.13Q451.28-49.10 450.45-47.71Q449.61-46.31 448.69-44.79Q447.77-43.26 446.96-41.93Q446.16-40.61 445.59-39.69Q445.03-38.77 444.90-38.59ZM471.63-39.89L471.63-39.89Q471.90-39.71 472.32-39.71Q472.75-39.71 473.18-39.89Q473.60-40.07 473.98-40.38Q474.37-40.70 474.55-41.19L474.55-41.19Q474.73-41.69 474.55-42.61Q474.37-43.53 473.98-44.58Q473.60-45.64 473.15-46.72Q472.70-47.80 472.39-48.69L472.39-48.69Q472.12-49.37 471.94-49.95L471.94-49.95Q471.76-50.45 471.60-50.92Q471.45-51.39 471.36-51.57L471.36-51.57Q471.13-51.21 470.57-50.40Q470.01-49.59 469.36-48.72Q468.71-47.84 468.12-47.10Q467.54-46.36 467.31-46.09L467.31-46.09Q466.95-45.68 466.62-45.62Q466.28-45.55 466.06-45.75Q465.83-45.95 465.81-46.34Q465.79-46.72 466.15-47.26L466.15-47.26Q466.41-47.62 466.95-48.40Q467.49-49.19 468.03-50.02Q468.57-50.85 469.02-51.50Q469.47-52.15 469.51-52.29L469.51-52.29Q469.60-52.65 469.27-53.23Q468.93-53.82 469.16-54.58L469.16-54.58Q469.33-55.21 469.96-56.04Q470.59-56.87 471.45-57.54Q472.30-58.22 473.20-58.55Q474.10-58.89 474.82-58.53L474.82-58.53Q475.40-58.17 475.76-57.75Q476.12-57.32 476.03-56.87L476.03-56.87Q475.94-56.65 475.76-56.29L475.76-56.29Q475.58-55.93 475.22-55.41Q474.86-54.89 474.19-54.09L474.19-54.09Q474.32-53.05 474.57-52.20Q474.82-51.34 475.04-50.72L475.04-50.72Q475.31-49.95 475.62-49.32L475.62-49.32Q476.03-48.51 476.48-47.66Q476.93-46.81 477.29-45.98Q477.65-45.15 477.87-44.43Q478.09-43.71 478.00-43.21L478.00-43.21Q477.87-42.45 477.22-41.37Q476.57-40.29 475.60-39.28Q474.64-38.27 473.40-37.55Q472.16-36.84 470.82-36.84L470.82-36.84Q469.87-36.84 469.00-37.42Q468.12-38.00 467.52-38.79Q466.91-39.58 466.62-40.34Q466.32-41.10 466.55-41.51L466.55-41.51Q466.82-42.05 467.04-42.36Q467.27-42.67 467.72-43.08L467.72-43.08Q467.90-43.21 468.17-43.39L468.17-43.39Q468.39-43.53 468.80-43.66Q469.20-43.80 469.74-43.98L469.74-43.98Q470.19-42.59 470.55-41.80Q470.91-41.01 471.13-40.56L471.13-40.56Q471.40-40.07 471.63-39.89ZM501.81-47.71L501.81-47.71Q500.47-45.73 498.76-43.87Q497.05-42.00 495.14-40.54Q493.23-39.08 491.23-38.18Q489.24-37.28 487.35-37.28L487.35-37.28Q486.36-37.28 485.21-37.76Q484.07-38.23 483.13-39.22Q482.18-40.20 481.62-41.78Q481.06-43.35 481.28-45.59L481.28-45.59Q481.46-47.44 482.43-49.48Q483.40-51.52 484.81-53.23Q486.23-54.94 488.00-56.06Q489.77-57.18 491.57-57.18L491.57-57.18Q493.28-57.18 494.04-56.33Q494.81-55.48 494.72-54.22L494.72-54.22Q494.58-52.83 493.93-51.66Q493.28-50.49 492.38-49.55Q491.48-48.60 490.47-47.84Q489.46-47.08 488.56-46.45L488.56-46.45Q487.57-45.77 486.67-45.17Q485.78-44.56 485.10-44.07L485.10-44.07Q485.15-42.94 485.51-42.18Q485.87-41.42 486.41-40.95Q486.94-40.47 487.64-40.27Q488.34-40.07 489.06-40.07L489.06-40.07Q490.58-40.07 492.24-41.04Q493.91-42.00 495.50-43.37Q497.10-44.74 498.47-46.22Q499.84-47.71 500.74-48.78L500.74-48.78Q501.05-49.14 501.39-49.21Q501.72-49.28 501.93-49.12Q502.13-48.96 502.13-48.58Q502.13-48.20 501.81-47.71ZM490.31-54.62L490.31-54.62Q489.77-54.62 489.03-54.09Q488.29-53.55 487.57-52.54Q486.85-51.52 486.23-50.06Q485.60-48.60 485.28-46.72L485.28-46.72Q485.82-47.12 486.45-47.55Q487.08-47.98 487.71-48.47L487.71-48.47Q489.64-49.95 490.40-51.08Q491.17-52.20 491.26-53.01L491.26-53.01Q491.35-53.86 491.08-54.24Q490.81-54.62 490.31-54.62ZM497.91-39.08L497.91-39.08Q499.88-47.39 501.07-52.42Q502.26-57.45 502.89-60.10L502.89-60.10Q503.61-63.25 503.88-64.46L503.88-64.46Q504.01-65.32 504.10-66.12L504.10-66.12Q504.19-66.84 504.19-67.61Q504.19-68.37 504.06-69.00L504.06-69.00Q504.42-69.22 504.85-69.36Q505.27-69.49 505.68-69.58L505.68-69.58Q506.17-69.72 506.66-69.81L506.66-69.81Q507.16-69.90 507.56-69.90L507.56-69.90Q507.92-69.90 508.24-69.83Q508.55-69.76 508.64-69.54L508.64-69.54Q508.91-69.31 508.89-68.64Q508.87-67.97 508.78-67.25L508.78-67.25Q508.60-66.39 508.37-65.41L508.37-65.41Q507.83-63.47 506.89-59.84L506.89-59.84Q506.08-56.74 504.71-51.39Q503.34-46.04 501.27-37.91L501.27-37.91Q501.05-37.69 500.74-37.60Q500.42-37.51 500.15-37.51L500.15-37.51Q499.84-37.51 499.48-37.55L499.48-37.55Q499.16-37.64 498.85-37.82L498.85-37.82Q498.58-38.00 498.31-38.30Q498.04-38.59 497.91-39.08ZM509.54-43.03L509.54-43.03Q509.05-43.53 508.84-44.00Q508.64-44.47 508.55-44.92L508.55-44.92Q508.46-45.42 508.55-45.91L508.55-45.91Q508.73-46.54 509.09-47.08L509.09-47.08Q509.41-47.57 509.94-48.09Q510.48-48.60 511.38-49.05L511.38-49.05Q511.97-50.49 512.44-52.09Q512.91-53.68 513.27-54.98L513.27-54.98Q513.67-56.51 513.99-58.04L513.99-58.04Q515.11-61.86 515.16-64.26Q515.20-66.66 515.07-67.43L515.07-67.43Q515.02-67.74 514.98-68.06L514.98-68.06Q514.89-68.33 514.82-68.66Q514.75-69.00 514.66-69.31L514.66-69.31Q515.16-69.58 515.54-69.76Q515.92-69.94 516.19-70.03L516.19-70.03Q516.50-70.17 516.77-70.21L516.77-70.21Q517.81-70.44 518.73-70.46Q519.65-70.48 519.74-70.12L519.74-70.12Q519.78-69.90 519.85-69.31Q519.92-68.73 519.92-67.88Q519.92-67.02 519.78-65.97Q519.65-64.91 519.29-63.74L519.29-63.74Q518.97-62.71 518.43-60.87L518.43-60.87Q517.94-59.30 517.13-56.67Q516.32-54.04 515.02-49.95L515.02-49.95Q516.37-50.40 517.99-50.81Q519.60-51.21 521.29-51.48Q522.97-51.75 524.66-51.88Q526.34-52.02 527.78-51.93L527.78-51.93Q528.05-51.93 528.16-51.68Q528.27-51.43 528.16-51.17Q528.05-50.90 527.67-50.65Q527.28-50.40 526.57-50.36L526.57-50.36Q525.67-50.27 524.59-50.15Q523.51-50.04 522.36-49.84Q521.22-49.64 520.10-49.35Q518.97-49.05 517.99-48.65L517.99-48.65Q517.22-48.38 516.46-48.11L516.46-48.11Q515.83-47.89 515.13-47.59Q514.44-47.30 513.99-47.08L513.99-47.08L512.95-43.80Q515.56-41.96 516.97-40.02Q518.39-38.09 519.02-36.48L519.02-36.48Q519.78-34.59 519.87-32.79L519.87-32.79Q519.87-30.82 519.29-28.82Q518.70-26.82 517.74-25.00Q516.77-23.18 515.49-21.61Q514.21-20.03 512.80-18.91Q511.38-17.79 509.92-17.20Q508.46-16.62 507.16-16.76L507.16-16.76Q506.22-16.84 505.59-17.36Q504.96-17.88 504.64-18.66Q504.33-19.45 504.28-20.42Q504.24-21.38 504.46-22.33L504.46-22.33Q504.64-23.27 505.23-25.83L505.23-25.83Q505.72-27.99 506.75-32.10Q507.79-36.21 509.54-43.03ZM512.19-40.92L512.19-40.92Q511.56-38.68 511.09-36.79Q510.62-34.90 510.30-33.47L510.30-33.47Q509.90-31.80 509.67-30.46L509.67-30.46Q509.27-28.75 508.84-27.09Q508.42-25.42 508.17-24.10Q507.92-22.77 507.97-21.97Q508.01-21.16 508.55-21.16L508.55-21.16Q509.85-21.07 511.27-22.17Q512.68-23.27 513.85-24.95Q515.02-26.64 515.78-28.59Q516.55-30.55 516.55-32.21L516.55-32.21Q516.55-34.05 515.96-35.85L515.96-35.85Q515.56-36.79 515.02-37.69L515.02-37.69Q514.53-38.45 513.83-39.33Q513.13-40.20 512.19-40.92Z"></path></g></g></svg>