<svg version="1.1" xmlns="http://www.w3.org/2000/svg" xmlns:xlink="http://www.w3.org/1999/xlink" width="461.06884765625" height="93.9723892211914"><defs></defs><g transform="translate(-249.08311462402344,63.48037338256836)"><rect fill="rgb(255,255,255)" stroke="none" x="0" y="0" width="461.06884765625" height="93.9723892211914" fill-opacity="0" transform="translate(249.08311462402344,-63.48037338256836)"></rect><g transform="translate(236.3309525841299,47.367657274677924) rotate(-5,0,0) translate(-236.3309525841299,-47.367657274677924) matrix(1,0,-0.24932800284318068,1,236.3309525841299,47.367657274677924)"><path fill="rgb(255,255,255)" fill-opacity="1" d="M19.96-44.83L19.96-44.83Q20.50-44.92 21.04-45.03Q21.58-45.14 22.21-45.32L22.21-45.32Q21.45-46.04 20.19-46.22L20.19-46.22Q20.05-45.50 19.96-44.83ZM38.34-58.71L38.34-58.71Q38.16-56.78 37.33-54.67Q36.50-52.56 35.01-50.58Q33.53-48.60 31.42-46.90Q29.31-45.19 26.61-44.11L26.61-44.11Q27.02-43.35 27.38-42.49Q27.74-41.64 28.01-40.56L28.01-40.56Q28.41-39.12 28.70-37.60Q28.99-36.07 29.20-34.63Q29.40-33.19 29.56-31.96Q29.71-30.72 29.80-29.91L29.80-29.91Q29.98-28.57 30.68-28.01Q31.37-27.44 32.25-27.38Q33.13-27.31 34.00-27.58Q34.88-27.85 35.37-28.16L35.37-28.16Q35.33-28.12 34.88-27.38Q34.43-26.64 33.67-25.80Q32.90-24.97 31.85-24.37Q30.79-23.76 29.49-23.98L29.49-23.98Q28.59-24.12 27.89-24.59Q27.20-25.06 26.68-25.98Q26.16-26.90 25.85-28.34Q25.54-29.78 25.45-31.85L25.45-31.85Q25.36-34.63 25.24-37.17Q25.13-39.71 24.28-41.86L24.28-41.86Q24.14-42.22 24.01-42.56Q23.87-42.90 23.69-43.17L23.69-43.17Q21.85-42.72 19.56-42.58L19.56-42.58Q19.25-40.88 18.89-39.08Q18.53-37.28 18.15-35.57Q17.76-33.87 17.34-32.36Q16.91-30.86 16.51-29.78L16.51-29.78Q16.06-28.66 15.36-27.96Q14.66-27.26 13.14-27.26L13.14-27.26Q12.24-27.26 11.56-27.67Q10.89-28.07 10.26-28.79L10.26-28.79Q10.44-28.93 10.82-29.22Q11.20-29.51 11.72-30.39Q12.24-31.26 12.84-32.88Q13.45-34.50 14.08-37.24L14.08-37.24Q14.30-38.36 14.69-39.86Q15.07-41.37 15.52-43.17L15.52-43.17Q13.72-44.15 13.86-45.82L13.86-45.82Q13.95-46.85 14.80-47.57Q15.65-48.29 16.87-48.56L16.87-48.56Q17.45-50.89 18.06-53.27Q18.66-55.65 19.20-57.74Q19.74-59.83 20.19-61.52Q20.64-63.20 20.91-64.19L20.91-64.19Q20.10-63.65 19.29-62.98L19.29-62.98Q18.57-62.39 17.74-61.65Q16.91-60.91 16.19-60.10L16.19-60.10Q15.83-60.37 15.61-60.69Q15.38-61.00 15.25-61.23L15.25-61.23Q15.07-61.49 14.98-61.81L14.98-61.81Q14.66-62.44 14.66-63.18Q14.66-63.92 15.74-64.68L15.74-64.68Q16.33-65.09 17.52-65.85Q18.71-66.62 20.46-67.33Q22.21-68.05 24.52-68.59Q26.84-69.13 29.67-69.13L29.67-69.13Q32.50-69.13 34.25-68.01Q36.00-66.89 36.95-65.27Q37.89-63.65 38.18-61.85Q38.47-60.06 38.34-58.71ZM24.77-46.36L24.77-46.36Q26.34-47.12 27.89-48.24Q29.44-49.37 30.70-50.94Q31.96-52.51 32.81-54.51Q33.67-56.51 33.89-59.02L33.89-59.02Q34.07-61.27 33.60-62.77Q33.13-64.28 32.21-65.18Q31.29-66.08 30.12-66.46Q28.95-66.84 27.78-66.84L27.78-66.84Q26.70-66.84 25.60-66.53Q24.50-66.21 23.47-65.72L23.47-65.72Q23.60-65.67 23.78-65.49L23.78-65.49Q23.87-65.36 23.99-65.16Q24.10-64.95 24.14-64.73L24.14-64.73Q23.11-60.37 22.48-57.45Q21.85-54.53 21.45-52.69L21.45-52.69Q20.95-50.53 20.73-49.23L20.73-49.23Q20.68-49.05 20.66-48.87Q20.64-48.69 20.59-48.47L20.59-48.47Q21.58-48.24 22.66-47.77Q23.74-47.30 24.77-46.36ZM58.01-44.47L58.01-44.47Q56.67-42.49 54.96-40.63Q53.25-38.76 51.34-37.30Q49.43-35.84 47.43-34.95Q45.44-34.05 43.55-34.05L43.55-34.05Q42.56-34.05 41.41-34.52Q40.27-34.99 39.33-35.98Q38.38-36.97 37.82-38.54Q37.26-40.11 37.48-42.36L37.48-42.36Q37.66-44.20 38.63-46.24Q39.60-48.29 41.01-49.99Q42.43-51.70 44.20-52.82Q45.97-53.95 47.77-53.95L47.77-53.95Q49.48-53.95 50.24-53.09Q51.01-52.24 50.92-50.98L50.92-50.98Q50.78-49.59 50.13-48.42Q49.48-47.25 48.58-46.31Q47.68-45.37 46.67-44.60Q45.66-43.84 44.76-43.21L44.76-43.21Q43.77-42.54 42.87-41.93Q41.98-41.32 41.30-40.83L41.30-40.83Q41.35-39.71 41.71-38.94Q42.07-38.18 42.61-37.71Q43.14-37.24 43.84-37.03Q44.54-36.83 45.26-36.83L45.26-36.83Q46.78-36.83 48.45-37.80Q50.11-38.76 51.70-40.13Q53.30-41.50 54.67-42.99Q56.04-44.47 56.94-45.55L56.94-45.55Q57.25-45.91 57.59-45.97Q57.92-46.04 58.13-45.88Q58.33-45.73 58.33-45.35Q58.33-44.96 58.01-44.47ZM46.51-51.39L46.51-51.39Q45.97-51.39 45.23-50.85Q44.49-50.31 43.77-49.30Q43.05-48.29 42.43-46.83Q41.80-45.37 41.48-43.48L41.48-43.48Q42.02-43.89 42.65-44.31Q43.28-44.74 43.91-45.23L43.91-45.23Q45.84-46.72 46.60-47.84Q47.37-48.96 47.46-49.77L47.46-49.77Q47.55-50.62 47.28-51.01Q47.01-51.39 46.51-51.39ZM61.11-36.65L61.11-36.65Q61.38-36.47 61.81-36.47Q62.24-36.47 62.66-36.65Q63.09-36.83 63.47-37.15Q63.85-37.46 64.03-37.96L64.03-37.96Q64.21-38.45 64.03-39.37Q63.85-40.29 63.47-41.35Q63.09-42.40 62.64-43.48Q62.19-44.56 61.88-45.46L61.88-45.46Q61.61-46.13 61.43-46.72L61.43-46.72Q61.25-47.21 61.09-47.68Q60.93-48.15 60.84-48.33L60.84-48.33Q60.62-47.97 60.06-47.16Q59.50-46.36 58.84-45.48Q58.19-44.60 57.61-43.86Q57.03-43.12 56.80-42.85L56.80-42.85Q56.44-42.45 56.10-42.38Q55.77-42.31 55.54-42.52Q55.32-42.72 55.30-43.10Q55.27-43.48 55.63-44.02L55.63-44.02Q55.90-44.38 56.44-45.17Q56.98-45.95 57.52-46.78Q58.06-47.61 58.51-48.27Q58.96-48.92 59.00-49.05L59.00-49.05Q59.09-49.41 58.75-49.99Q58.42-50.58 58.64-51.34L58.64-51.34Q58.82-51.97 59.45-52.80Q60.08-53.63 60.93-54.31Q61.79-54.98 62.69-55.32Q63.58-55.65 64.30-55.30L64.30-55.30Q64.89-54.94 65.25-54.51Q65.61-54.08 65.52-53.63L65.52-53.63Q65.43-53.41 65.25-53.05L65.25-53.05Q65.07-52.69 64.71-52.17Q64.35-51.66 63.67-50.85L63.67-50.85Q63.81-49.81 64.06-48.96Q64.30-48.11 64.53-47.48L64.53-47.48Q64.80-46.72 65.11-46.09L65.11-46.09Q65.52-45.28 65.96-44.42Q66.41-43.57 66.77-42.74Q67.13-41.91 67.36-41.19Q67.58-40.47 67.49-39.98L67.49-39.98Q67.36-39.21 66.71-38.14Q66.05-37.06 65.09-36.05Q64.12-35.04 62.89-34.32Q61.65-33.60 60.30-33.60L60.30-33.60Q59.36-33.60 58.49-34.18Q57.61-34.77 57.00-35.55Q56.40-36.34 56.10-37.10Q55.81-37.87 56.04-38.27L56.04-38.27Q56.31-38.81 56.53-39.12Q56.76-39.44 57.20-39.84L57.20-39.84Q57.38-39.98 57.65-40.16L57.65-40.16Q57.88-40.29 58.28-40.43Q58.69-40.56 59.23-40.74L59.23-40.74Q59.68-39.35 60.04-38.56Q60.39-37.78 60.62-37.33L60.62-37.33Q60.89-36.83 61.11-36.65ZM67.72-15.94L67.72-15.94Q67.40-16.08 67.09-16.35L67.09-16.35Q66.82-16.57 66.55-16.91Q66.28-17.25 66.10-17.74L66.10-17.74Q67.36-22.55 68.23-26.10Q69.11-29.65 69.74-32.03L69.74-32.03Q70.41-34.81 70.91-36.70L70.91-36.70Q71.36-38.49 71.80-40.29L71.80-40.29Q72.16-41.86 72.59-43.66Q73.02-45.46 73.38-47.03L73.38-47.03Q73.83-48.78 73.92-49.84Q74.01-50.89 73.24-51.66L73.24-51.66Q73.78-52.11 74.34-52.35Q74.90-52.60 75.35-52.69L75.35-52.69Q75.85-52.82 76.34-52.78L76.34-52.78Q77.55-52.69 77.85-52.02Q78.14-51.34 77.91-49.86L77.91-49.86Q77.87-49.64 77.85-49.48Q77.82-49.32 77.82-49.14L77.82-49.14Q78.45-49.86 79.22-50.53Q79.98-51.21 80.77-51.75Q81.55-52.29 82.38-52.62Q83.21-52.96 83.98-52.96L83.98-52.96Q85.01-52.96 85.66-52.44Q86.31-51.93 86.67-51.07Q87.03-50.22 87.12-49.16Q87.21-48.11 87.17-47.07L87.17-47.07Q87.12-45.95 86.79-44.69Q86.45-43.44 85.87-42.13Q85.28-40.83 84.52-39.57Q83.75-38.31 82.90-37.24L82.90-37.24Q83.08-37.19 83.12-37.17Q83.17-37.15 83.17-37.12Q83.17-37.10 83.24-37.08Q83.30-37.06 83.53-37.06L83.53-37.06Q84.56-37.06 85.64-37.60Q86.72-38.14 87.75-38.97Q88.79-39.80 89.75-40.79Q90.72-41.77 91.50-42.69Q92.29-43.62 92.83-44.36Q93.37-45.10 93.64-45.41L93.64-45.41Q94.00-45.86 94.31-46.02Q94.62-46.18 94.80-46.04Q94.98-45.91 94.98-45.52Q94.98-45.14 94.71-44.56L94.71-44.56Q94.54-44.15 93.95-43.26Q93.37-42.36 92.51-41.23Q91.66-40.11 90.56-38.90Q89.46-37.69 88.25-36.70Q87.03-35.71 85.75-35.06Q84.47-34.41 83.26-34.41L83.26-34.41Q82.68-34.41 82.32-34.45Q81.96-34.50 81.71-34.61Q81.46-34.72 81.24-34.83Q81.01-34.95 80.70-35.08L80.70-35.08Q79.89-34.45 79.04-34.11Q78.18-33.78 77.37-33.78L77.37-33.78Q76.61-33.78 76.05-34.02Q75.49-34.27 75.13-34.70Q74.77-35.13 74.54-35.64Q74.32-36.16 74.19-36.65L74.19-36.65Q74.14-36.47 74.12-36.34Q74.10-36.20 74.05-35.98L74.05-35.98Q73.51-33.82 72.93-30.99L72.93-30.99Q72.43-28.57 71.74-25.09Q71.04-21.60 70.28-17.16L70.28-17.16Q70.01-15.94 69.31-15.76Q68.62-15.58 67.72-15.94ZM75.94-43.80L75.94-43.80Q75.71-43.03 75.47-42.02Q75.22-41.01 74.90-39.62L74.90-39.62Q75.26-39.89 75.71-40.02Q76.16-40.16 76.61-40.16L76.61-40.16Q77.11-40.16 77.87-39.64Q78.63-39.12 79.71-38.54L79.71-38.54Q80.38-39.35 81.13-40.36Q81.87-41.37 82.47-42.45Q83.08-43.53 83.51-44.65Q83.93-45.77 83.98-46.81L83.98-46.81Q84.07-48.15 83.66-48.92Q83.26-49.68 82.32-49.68L82.32-49.68Q80.92-49.68 79.28-48.04Q77.64-46.40 75.94-43.80ZM105.00-42.27L105.00-42.27Q104.55-40.56 103.79-39.08Q103.03-37.60 101.97-36.52Q100.91-35.44 99.59-34.83Q98.26-34.23 96.69-34.23L96.69-34.23Q94.85-34.23 93.79-35.01Q92.74-35.80 92.22-36.97Q91.70-38.14 91.59-39.53Q91.48-40.92 91.48-42.13L91.48-42.13Q91.48-42.99 91.68-44.02Q91.88-45.05 92.24-46.13Q92.60-47.21 93.16-48.29Q93.73-49.37 94.49-50.26L94.49-50.26Q94.76-51.03 95.32-51.61Q95.88-52.20 96.62-52.58Q97.37-52.96 98.22-53.16Q99.07-53.36 99.88-53.36L99.88-53.36Q100.02-53.36 100.13-53.32Q100.24-53.27 100.37-53.23L100.37-53.23Q100.96-53.18 101.83-52.78Q102.71-52.38 103.54-51.57Q104.37-50.76 104.96-49.52Q105.54-48.29 105.54-46.54L105.54-46.54Q105.54-46.18 105.50-45.66Q105.45-45.14 105.41-44.78L105.41-44.78Q106.44-45.19 107.56-45.77Q108.69-46.36 109.74-47.01Q110.80-47.66 111.70-48.33Q112.59-49.01 113.13-49.55L113.13-49.55Q113.58-49.95 113.90-49.99Q114.21-50.04 114.35-49.81Q114.48-49.59 114.39-49.19Q114.30-48.78 113.90-48.29L113.90-48.29Q113.67-48.02 112.75-47.21Q111.83-46.40 110.57-45.46Q109.31-44.51 107.83-43.62Q106.35-42.72 105.00-42.27ZM97.41-49.10L97.41-49.10Q97.28-48.69 97.28-48.24L97.28-48.24Q97.28-47.52 97.37-46.74Q97.45-45.95 97.81-45.32Q98.17-44.69 98.96-44.27Q99.75-43.84 101.14-43.84L101.14-43.84Q101.36-43.84 101.59-43.86Q101.81-43.89 102.04-43.93L102.04-43.93Q102.17-44.51 102.28-44.99Q102.40-45.46 102.40-45.82L102.40-45.82Q102.49-46.67 102.40-47.57Q102.31-48.47 102.06-49.21Q101.81-49.95 101.43-50.42Q101.05-50.89 100.51-50.89L100.51-50.89Q99.66-50.89 98.87-50.42Q98.08-49.95 97.41-49.10ZM94.54-41.19L94.54-41.19Q94.54-40.38 94.62-39.60Q94.71-38.81 94.98-38.20Q95.25-37.60 95.70-37.21Q96.15-36.83 96.87-36.83L96.87-36.83Q97.68-36.83 98.35-37.21Q99.03-37.60 99.57-38.20Q100.11-38.81 100.53-39.60Q100.96-40.38 101.27-41.23L101.27-41.23Q100.96-41.19 100.67-41.17Q100.37-41.15 100.02-41.15L100.02-41.15Q98.31-41.15 97.07-42.16Q95.84-43.17 95.16-44.74L95.16-44.74Q94.89-43.80 94.71-42.90Q94.54-42.00 94.54-41.19ZM123.15-34.00L123.15-34.00Q122.12-34.00 121.38-34.38Q120.63-34.77 120.19-35.40Q119.74-36.02 119.60-36.85Q119.47-37.69 119.69-38.63L119.69-38.63Q119.83-39.26 120.14-40.31Q120.45-41.37 120.79-42.60Q121.13-43.84 121.42-45.08Q121.71-46.31 121.80-47.32Q121.89-48.33 121.71-48.98Q121.53-49.64 120.95-49.64L120.95-49.64Q120.23-49.64 119.47-49.16Q118.70-48.69 117.92-47.88Q117.13-47.07 116.34-46.02Q115.56-44.96 114.79-43.84L114.79-43.84Q114.39-42.31 114.12-41.17Q113.85-40.02 113.65-39.10Q113.45-38.18 113.27-37.48Q113.09-36.79 112.95-36.16L112.95-36.16Q112.82-35.71 112.14-35.28Q111.47-34.86 110.71-34.59Q109.94-34.32 109.38-34.32Q108.82-34.32 108.91-34.72L108.91-34.72Q108.95-34.99 109.20-35.93Q109.45-36.88 109.79-38.16Q110.12-39.44 110.48-40.88Q110.84-42.31 111.16-43.62L111.16-43.62Q111.38-44.65 111.65-45.91L111.65-45.91Q111.87-46.98 112.21-48.42Q112.55-49.86 113.00-51.57L113.00-51.57Q113.31-51.84 113.65-51.99Q113.99-52.15 114.35-52.24L114.35-52.24Q114.70-52.38 115.11-52.42L115.11-52.42Q115.47-52.42 115.83-52.38L115.83-52.38Q116.14-52.33 116.48-52.22Q116.82-52.11 117.09-51.88L117.09-51.88Q116.95-51.57 116.77-51.01Q116.59-50.44 116.41-49.81L116.41-49.81Q116.23-49.10 115.96-48.33L115.96-48.33Q116.55-49.14 117.29-49.97Q118.03-50.80 118.91-51.48Q119.78-52.15 120.77-52.58Q121.76-53.00 122.79-53.00L122.79-53.00Q123.64-53.00 124.32-52.51Q124.99-52.02 125.37-51.14Q125.76-50.26 125.82-49.05Q125.89-47.84 125.49-46.40L125.49-46.40L124.99-44.42Q124.77-43.48 124.43-42.20Q124.09-40.92 123.60-39.39L123.60-39.39Q123.33-38.40 123.40-37.69Q123.46-36.97 124.27-36.97L124.27-36.97Q125.08-36.97 126.32-37.96Q127.55-38.94 128.81-40.34Q130.07-41.73 131.19-43.19Q132.31-44.65 132.90-45.55L132.90-45.55Q133.30-46.13 133.66-46.31Q134.02-46.49 134.22-46.36Q134.43-46.22 134.43-45.75Q134.43-45.28 134.07-44.56L134.07-44.56Q133.75-43.93 133.10-42.90Q132.45-41.86 131.55-40.70Q130.65-39.53 129.62-38.34Q128.59-37.15 127.46-36.18Q126.34-35.22 125.24-34.61Q124.14-34.00 123.15-34.00ZM137.39-36.65L137.39-36.65Q137.66-36.47 138.09-36.47Q138.51-36.47 138.94-36.65Q139.37-36.83 139.75-37.15Q140.13-37.46 140.31-37.96L140.31-37.96Q140.49-38.45 140.31-39.37Q140.13-40.29 139.75-41.35Q139.37-42.40 138.92-43.48Q138.47-44.56 138.15-45.46L138.15-45.46Q137.88-46.13 137.70-46.72L137.70-46.72Q137.53-47.21 137.37-47.68Q137.21-48.15 137.12-48.33L137.12-48.33Q136.90-47.97 136.33-47.16Q135.77-46.36 135.12-45.48Q134.47-44.60 133.89-43.86Q133.30-43.12 133.08-42.85L133.08-42.85Q132.72-42.45 132.38-42.38Q132.04-42.31 131.82-42.52Q131.60-42.72 131.57-43.10Q131.55-43.48 131.91-44.02L131.91-44.02Q132.18-44.38 132.72-45.17Q133.26-45.95 133.80-46.78Q134.34-47.61 134.79-48.27Q135.23-48.92 135.28-49.05L135.28-49.05Q135.37-49.41 135.03-49.99Q134.70-50.58 134.92-51.34L134.92-51.34Q135.10-51.97 135.73-52.80Q136.36-53.63 137.21-54.31Q138.06-54.98 138.96-55.32Q139.86-55.65 140.58-55.30L140.58-55.30Q141.16-54.94 141.52-54.51Q141.88-54.08 141.79-53.63L141.79-53.63Q141.70-53.41 141.52-53.05L141.52-53.05Q141.34-52.69 140.98-52.17Q140.62-51.66 139.95-50.85L139.95-50.85Q140.09-49.81 140.33-48.96Q140.58-48.11 140.80-47.48L140.80-47.48Q141.07-46.72 141.39-46.09L141.39-46.09Q141.79-45.28 142.24-44.42Q142.69-43.57 143.05-42.74Q143.41-41.91 143.63-41.19Q143.86-40.47 143.77-39.98L143.77-39.98Q143.63-39.21 142.98-38.14Q142.33-37.06 141.37-36.05Q140.40-35.04 139.16-34.32Q137.93-33.60 136.58-33.60L136.58-33.60Q135.64-33.60 134.76-34.18Q133.89-34.77 133.28-35.55Q132.67-36.34 132.38-37.10Q132.09-37.87 132.31-38.27L132.31-38.27Q132.58-38.81 132.81-39.12Q133.03-39.44 133.48-39.84L133.48-39.84Q133.66-39.98 133.93-40.16L133.93-40.16Q134.16-40.29 134.56-40.43Q134.96-40.56 135.50-40.74L135.50-40.74Q135.95-39.35 136.31-38.56Q136.67-37.78 136.90-37.33L136.90-37.33Q137.17-36.83 137.39-36.65ZM157.11-61.58L157.11-61.58Q156.98-61.09 156.59-60.62Q156.21-60.15 155.74-59.85Q155.27-59.56 154.78-59.47Q154.28-59.38 153.97-59.65L153.97-59.65Q153.02-60.37 152.98-61.20Q152.93-62.03 153.38-62.77Q153.83-63.52 154.51-64.03Q155.18-64.55 155.67-64.64L155.67-64.64Q156.17-64.73 156.50-64.44Q156.84-64.15 157.02-63.67Q157.20-63.20 157.22-62.62Q157.25-62.03 157.11-61.58ZM150.91-52.02L150.91-52.02Q151.14-52.29 151.77-52.47Q152.39-52.65 153.07-52.76Q153.74-52.87 154.30-52.89Q154.87-52.91 154.95-52.87L154.95-52.87Q155.00-52.82 154.73-51.93Q154.46-51.03 154.06-49.81Q153.65-48.60 153.20-47.32Q152.75-46.04 152.53-45.23L152.53-45.23Q152.30-44.42 151.99-43.41Q151.68-42.40 151.43-41.44Q151.18-40.47 151.09-39.62Q151.00-38.76 151.23-38.31L151.23-38.31Q151.45-37.78 151.72-37.57Q151.99-37.37 152.30-37.37L152.30-37.37Q153.20-37.37 154.57-38.36Q155.94-39.35 157.36-40.72Q158.77-42.09 159.99-43.50Q161.20-44.92 161.78-45.77L161.78-45.77Q162.14-46.22 162.52-46.36Q162.91-46.49 163.15-46.31Q163.40-46.13 163.42-45.73Q163.45-45.32 163.13-44.78L163.13-44.78Q162.41-43.53 161.02-41.80Q159.63-40.07 158.05-38.47Q156.48-36.88 154.98-35.75Q153.47-34.63 152.53-34.59L152.53-34.59Q151.77-34.54 151.02-34.83Q150.28-35.13 149.68-35.64Q149.07-36.16 148.67-36.85Q148.26-37.55 148.22-38.31L148.22-38.31Q148.08-39.44 148.22-41.39Q148.35-43.35 148.71-45.39Q149.07-47.43 149.63-49.28Q150.19-51.12 150.91-52.02ZM170.14-60.87L170.14-60.87Q169.46-58.17 168.63-55.72Q167.80-53.27 166.93-51.14Q166.05-49.01 165.17-47.25Q164.30-45.50 163.62-44.20L163.62-44.20Q163.18-40.97 163.62-38.99Q164.07-37.01 165.38-37.01L165.38-37.01Q166.45-37.01 167.49-38.00Q168.52-38.99 169.33-40.43Q170.14-41.86 170.70-43.50Q171.26-45.14 171.40-46.45L171.40-46.45Q170.54-46.67 169.96-47.23Q169.37-47.79 169.37-48.74L169.37-48.74Q169.37-49.37 169.73-49.93Q170.09-50.49 170.59-50.89Q171.08-51.30 171.67-51.52Q172.25-51.75 172.74-51.75L172.74-51.75Q173.51-51.75 174.05-50.78Q174.59-49.81 174.77-48.33L174.77-48.33Q176.56-48.38 178.54-48.87Q180.52-49.37 182.27-50.13L182.27-50.13Q182.76-50.35 183.08-50.26Q183.39-50.17 183.50-49.90Q183.62-49.64 183.48-49.30Q183.35-48.96 182.94-48.78L182.94-48.78Q181.91-48.20 180.81-47.73Q179.71-47.25 178.63-46.94Q177.55-46.63 176.56-46.45Q175.57-46.27 174.77-46.27L174.77-46.27Q174.59-44.47 173.64-42.38Q172.70-40.29 171.35-38.52Q170.00-36.74 168.36-35.57Q166.72-34.41 165.15-34.41L165.15-34.41Q164.66-34.41 163.85-34.54Q163.04-34.68 162.28-35.48Q161.51-36.29 160.97-38.07Q160.44-39.84 160.53-43.12L160.53-43.12Q160.57-45.32 161.02-47.79Q161.47-50.26 162.10-52.73Q162.73-55.21 163.51-57.52Q164.30-59.83 165.02-61.70Q165.74-63.56 166.34-64.82Q166.95-66.08 167.26-66.44L167.26-66.44Q167.67-66.93 168.21-67.18Q168.75-67.42 169.26-67.54Q169.78-67.65 170.23-67.60Q170.68-67.56 170.86-67.47L170.86-67.47Q171.13-67.29 171.01-65.49Q170.90-63.70 170.14-60.87ZM188.83-61.58L188.83-61.58Q188.69-61.09 188.31-60.62Q187.93-60.15 187.46-59.85Q186.98-59.56 186.49-59.47Q186.00-59.38 185.68-59.65L185.68-59.65Q184.74-60.37 184.69-61.20Q184.65-62.03 185.10-62.77Q185.55-63.52 186.22-64.03Q186.89-64.55 187.39-64.64L187.39-64.64Q187.88-64.73 188.22-64.44Q188.56-64.15 188.74-63.67Q188.92-63.20 188.94-62.62Q188.96-62.03 188.83-61.58ZM182.63-52.02L182.63-52.02Q182.85-52.29 183.48-52.47Q184.11-52.65 184.78-52.76Q185.46-52.87 186.02-52.89Q186.58-52.91 186.67-52.87L186.67-52.87Q186.71-52.82 186.45-51.93Q186.18-51.03 185.77-49.81Q185.37-48.60 184.92-47.32Q184.47-46.04 184.24-45.23L184.24-45.23Q184.02-44.42 183.70-43.41Q183.39-42.40 183.14-41.44Q182.90-40.47 182.81-39.62Q182.72-38.76 182.94-38.31L182.94-38.31Q183.17-37.78 183.44-37.57Q183.70-37.37 184.02-37.37L184.02-37.37Q184.92-37.37 186.29-38.36Q187.66-39.35 189.07-40.72Q190.49-42.09 191.70-43.50Q192.91-44.92 193.50-45.77L193.50-45.77Q193.86-46.22 194.24-46.36Q194.62-46.49 194.87-46.31Q195.12-46.13 195.14-45.73Q195.16-45.32 194.85-44.78L194.85-44.78Q194.13-43.53 192.73-41.80Q191.34-40.07 189.77-38.47Q188.20-36.88 186.69-35.75Q185.19-34.63 184.24-34.59L184.24-34.59Q183.48-34.54 182.74-34.83Q182.00-35.13 181.39-35.64Q180.79-36.16 180.38-36.85Q179.98-37.55 179.93-38.31L179.93-38.31Q179.80-39.44 179.93-41.39Q180.07-43.35 180.43-45.39Q180.79-47.43 181.35-49.28Q181.91-51.12 182.63-52.02ZM190.89-35.84L190.89-35.84Q192.87-44.15 194.06-49.19Q195.25-54.22 195.88-56.87L195.88-56.87Q196.60-60.01 196.87-61.23L196.87-61.23Q197.00-62.08 197.09-62.89L197.09-62.89Q197.18-63.61 197.18-64.37Q197.18-65.13 197.05-65.76L197.05-65.76Q197.41-65.99 197.83-66.12Q198.26-66.26 198.66-66.35L198.66-66.35Q199.16-66.48 199.65-66.57L199.65-66.57Q200.15-66.66 200.55-66.66L200.55-66.66Q200.91-66.66 201.22-66.59Q201.54-66.53 201.63-66.30L201.63-66.30Q201.90-66.08 201.88-65.40Q201.85-64.73 201.76-64.01L201.76-64.01Q201.58-63.16 201.36-62.17L201.36-62.17Q200.82-60.24 199.88-56.60L199.88-56.60Q199.07-53.50 197.70-48.15Q196.33-42.81 194.26-34.68L194.26-34.68Q194.04-34.45 193.72-34.36Q193.41-34.27 193.14-34.27L193.14-34.27Q192.82-34.27 192.46-34.32L192.46-34.32Q192.15-34.41 191.84-34.59L191.84-34.59Q191.57-34.77 191.30-35.06Q191.03-35.35 190.89-35.84ZM211.51-61.58L211.51-61.58Q211.38-61.09 211.00-60.62Q210.61-60.15 210.14-59.85Q209.67-59.56 209.18-59.47Q208.68-59.38 208.37-59.65L208.37-59.65Q207.42-60.37 207.38-61.20Q207.33-62.03 207.78-62.77Q208.23-63.52 208.91-64.03Q209.58-64.55 210.07-64.64L210.07-64.64Q210.57-64.73 210.91-64.44Q211.24-64.15 211.42-63.67Q211.60-63.20 211.62-62.62Q211.65-62.03 211.51-61.58ZM205.31-52.02L205.31-52.02Q205.54-52.29 206.17-52.47Q206.79-52.65 207.47-52.76Q208.14-52.87 208.70-52.89Q209.27-52.91 209.36-52.87L209.36-52.87Q209.40-52.82 209.13-51.93Q208.86-51.03 208.46-49.81Q208.05-48.60 207.60-47.32Q207.15-46.04 206.93-45.23L206.93-45.23Q206.70-44.42 206.39-43.41Q206.08-42.40 205.83-41.44Q205.58-40.47 205.49-39.62Q205.40-38.76 205.63-38.31L205.63-38.31Q205.85-37.78 206.12-37.57Q206.39-37.37 206.70-37.37L206.70-37.37Q207.60-37.37 208.97-38.36Q210.34-39.35 211.76-40.72Q213.17-42.09 214.39-43.50Q215.60-44.92 216.18-45.77L216.18-45.77Q216.54-46.22 216.92-46.36Q217.31-46.49 217.55-46.31Q217.80-46.13 217.82-45.73Q217.85-45.32 217.53-44.78L217.53-44.78Q216.81-43.53 215.42-41.80Q214.03-40.07 212.45-38.47Q210.88-36.88 209.38-35.75Q207.87-34.63 206.93-34.59L206.93-34.59Q206.17-34.54 205.42-34.83Q204.68-35.13 204.08-35.64Q203.47-36.16 203.07-36.85Q202.66-37.55 202.62-38.31L202.62-38.31Q202.48-39.44 202.62-41.39Q202.75-43.35 203.11-45.39Q203.47-47.43 204.03-49.28Q204.59-51.12 205.31-52.02ZM230.83-46.49L230.83-46.49Q231.01-46.76 231.30-46.83Q231.59-46.90 231.77-46.76Q231.95-46.63 231.97-46.31Q232.00-46.00 231.73-45.46L231.73-45.46Q230.83-43.75 229.37-41.77Q227.91-39.80 226.29-38.07Q224.67-36.34 223.15-35.22Q221.62-34.09 220.59-34.09L220.59-34.09Q219.10-34.09 218.12-34.68Q217.13-35.26 216.57-36.11Q216.00-36.97 215.78-37.98Q215.55-38.99 215.64-39.84L215.64-39.84Q215.69-40.56 215.96-42.43Q216.23-44.29 216.68-46.74Q217.13-49.19 217.69-51.99Q218.25-54.80 218.88-57.41L218.88-57.41Q218.12-57.32 217.35-57.23Q216.59-57.14 215.96-57.14L215.96-57.14Q214.52-57.14 213.24-57.47Q211.96-57.81 211.33-58.13L211.33-58.13Q210.97-58.31 211.02-58.64Q211.06-58.98 211.29-59.32Q211.51-59.65 211.85-59.90Q212.19-60.15 212.45-60.15L212.45-60.15Q213.31-60.06 214.30-59.99Q215.29-59.92 216.45-59.97L216.45-59.97Q217.31-60.01 218.09-60.10Q218.88-60.19 219.64-60.33L219.64-60.33Q220.23-62.48 220.79-64.08Q221.35-65.67 221.80-66.30L221.80-66.30Q221.93-66.53 222.41-66.68Q222.88-66.84 223.42-66.91Q223.95-66.98 224.45-66.91Q224.94-66.84 225.17-66.57L225.17-66.57Q225.39-66.21 225.35-64.73Q225.30-63.25 224.85-60.96L224.85-60.96Q226.74-60.96 228.20-60.75Q229.66-60.55 230.69-60.30Q231.73-60.06 232.36-59.81Q232.98-59.56 233.30-59.47L233.30-59.47Q233.61-59.38 233.64-59.02Q233.66-58.66 233.50-58.28Q233.34-57.90 232.98-57.63Q232.62-57.36 232.18-57.45L232.18-57.45Q231.73-57.50 231.16-57.63Q230.60-57.77 229.82-57.86Q229.03-57.95 227.95-58.04Q226.87-58.13 225.44-58.13L225.44-58.13Q225.17-58.13 224.83-58.10Q224.49-58.08 224.13-58.08L224.13-58.08Q223.95-57.36 223.80-56.67Q223.64-55.97 223.37-55.21L223.37-55.21Q222.79-53.41 222.02-51.30L222.02-51.30Q221.35-49.46 220.41-47.07Q219.46-44.69 218.29-42.00L218.29-42.00Q218.03-40.07 218.36-39.06Q218.70-38.05 219.19-37.60L219.19-37.60Q219.78-37.10 220.63-37.06L220.63-37.06Q221.30-36.97 222.27-37.53Q223.24-38.09 224.27-39.03Q225.30-39.98 226.36-41.10Q227.41-42.22 228.31-43.30Q229.21-44.38 229.88-45.26Q230.56-46.13 230.83-46.49ZM239.95-51.66L239.95-51.66Q240.53-52.11 241.09-52.35Q241.65-52.60 242.10-52.69L242.10-52.69Q242.60-52.82 243.09-52.78L243.09-52.78Q244.30-52.69 244.60-52.02Q244.89-51.34 244.66-49.86L244.66-49.86Q244.53-49.10 244.12-47.93Q243.72-46.76 243.18-45.08Q242.64-43.39 242.04-41.23Q241.43-39.08 240.89-36.38L240.89-36.38Q240.35-34.18 239.72-31.31L239.72-31.31Q239.18-28.79 238.44-25.24Q237.70-21.69 236.85-17.11L236.85-17.11Q236.62-15.99 235.88-15.81Q235.14-15.63 234.33-15.99L234.33-15.99Q234.02-16.17 233.75-16.39L233.75-16.39Q233.52-16.62 233.25-16.91Q232.98-17.20 232.80-17.70L232.80-17.70Q233.84-21.47 234.62-24.57Q235.41-27.67 236.04-29.96L236.04-29.96Q236.71-32.61 237.30-34.72L237.30-34.72Q237.52-35.66 237.72-36.59Q237.93-37.51 238.15-38.40L238.15-38.40Q237.57-37.46 236.89-36.61Q236.22-35.75 235.41-35.13Q234.60-34.50 233.68-34.16Q232.76-33.82 231.77-33.96L231.77-33.96Q229.35-34.27 228.33-35.75Q227.32-37.24 227.46-39.62L227.46-39.62Q227.50-40.56 227.73-41.68Q227.95-42.81 228.22-43.84Q228.49-44.87 228.74-45.70Q228.99-46.54 229.12-46.90L229.12-46.90Q229.66-48.60 229.91-49.81Q230.15-51.03 229.53-51.84L229.53-51.84Q230.15-52.24 230.72-52.40Q231.28-52.56 231.73-52.65L231.73-52.65Q232.22-52.69 232.71-52.65L232.71-52.65Q233.93-52.47 234.13-51.75Q234.33-51.03 233.97-49.59L233.97-49.59Q233.79-48.83 233.39-47.64Q232.98-46.45 232.54-45.19Q232.09-43.93 231.73-42.87Q231.37-41.82 231.32-41.37L231.32-41.37Q230.92-39.35 231.28-38.25Q231.64-37.15 232.85-37.15L232.85-37.15Q233.43-37.15 234.15-37.66Q234.87-38.18 235.61-39.03Q236.35-39.89 237.07-40.99Q237.79-42.09 238.40-43.21Q239.00-44.33 239.48-45.41Q239.95-46.49 240.17-47.34L240.17-47.34Q240.49-49.01 240.58-49.95Q240.67-50.89 239.95-51.66ZM247.76-38.49L247.76-38.49Q248.93-38.36 249.31-37.46Q249.70-36.56 249.47-35.44L249.47-35.44Q249.38-34.86 249.11-34.11Q248.84-33.37 248.35-32.56Q247.85-31.76 247.13-31.02Q246.42-30.27 245.38-29.69L245.38-29.69Q244.98-29.47 244.71-29.51Q244.44-29.56 244.35-29.73Q244.26-29.91 244.33-30.18Q244.39-30.45 244.66-30.68L244.66-30.68Q245.11-31.13 245.67-32.00Q246.24-32.88 246.46-33.91L246.46-33.91Q246.24-33.87 246.03-33.85Q245.83-33.82 245.61-33.87L245.61-33.87Q244.93-33.96 244.44-34.47Q243.95-34.99 244.04-35.93L244.04-35.93Q244.21-37.10 245.34-37.89Q246.46-38.67 247.76-38.49ZM287.88-44.47L287.88-44.47Q286.53-42.49 284.82-40.63Q283.12-38.76 281.21-37.30Q279.30-35.84 277.30-34.95Q275.30-34.05 273.41-34.05L273.41-34.05Q272.43-34.05 271.28-34.52Q270.13-34.99 269.19-35.98Q268.25-36.97 267.69-38.54Q267.12-40.11 267.35-42.36L267.35-42.36Q267.53-44.20 268.50-46.24Q269.46-48.29 270.88-49.99Q272.29-51.70 274.07-52.82Q275.84-53.95 277.64-53.95L277.64-53.95Q279.34-53.95 280.11-53.09Q280.87-52.24 280.78-50.98L280.78-50.98Q280.65-49.59 280.00-48.42Q279.34-47.25 278.45-46.31Q277.55-45.37 276.54-44.60Q275.53-43.84 274.63-43.21L274.63-43.21Q273.64-42.54 272.74-41.93Q271.84-41.32 271.17-40.83L271.17-40.83Q271.21-39.71 271.57-38.94Q271.93-38.18 272.47-37.71Q273.01-37.24 273.71-37.03Q274.40-36.83 275.12-36.83L275.12-36.83Q276.65-36.83 278.31-37.80Q279.97-38.76 281.57-40.13Q283.16-41.50 284.53-42.99Q285.90-44.47 286.80-45.55L286.80-45.55Q287.12-45.91 287.45-45.97Q287.79-46.04 287.99-45.88Q288.19-45.73 288.19-45.35Q288.19-44.96 287.88-44.47ZM276.38-51.39L276.38-51.39Q275.84-51.39 275.10-50.85Q274.36-50.31 273.64-49.30Q272.92-48.29 272.29-46.83Q271.66-45.37 271.35-43.48L271.35-43.48Q271.89-43.89 272.52-44.31Q273.14-44.74 273.77-45.23L273.77-45.23Q275.70-46.72 276.47-47.84Q277.23-48.96 277.32-49.77L277.32-49.77Q277.41-50.62 277.14-51.01Q276.87-51.39 276.38-51.39ZM297.99-34.00L297.99-34.00Q296.95-34.00 296.21-34.38Q295.47-34.77 295.02-35.40Q294.57-36.02 294.44-36.85Q294.30-37.69 294.53-38.63L294.53-38.63Q294.66-39.26 294.98-40.31Q295.29-41.37 295.63-42.60Q295.96-43.84 296.26-45.08Q296.55-46.31 296.64-47.32Q296.73-48.33 296.55-48.98Q296.37-49.64 295.79-49.64L295.79-49.64Q295.07-49.64 294.30-49.16Q293.54-48.69 292.75-47.88Q291.97-47.07 291.18-46.02Q290.39-44.96 289.63-43.84L289.63-43.84Q289.23-42.31 288.96-41.17Q288.69-40.02 288.49-39.10Q288.28-38.18 288.10-37.48Q287.92-36.79 287.79-36.16L287.79-36.16Q287.65-35.71 286.98-35.28Q286.31-34.86 285.54-34.59Q284.78-34.32 284.22-34.32Q283.66-34.32 283.75-34.72L283.75-34.72Q283.79-34.99 284.04-35.93Q284.29-36.88 284.62-38.16Q284.96-39.44 285.32-40.88Q285.68-42.31 285.99-43.62L285.99-43.62Q286.22-44.65 286.49-45.91L286.49-45.91Q286.71-46.98 287.05-48.42Q287.38-49.86 287.83-51.57L287.83-51.57Q288.15-51.84 288.49-51.99Q288.82-52.15 289.18-52.24L289.18-52.24Q289.54-52.38 289.95-52.42L289.95-52.42Q290.30-52.42 290.66-52.38L290.66-52.38Q290.98-52.33 291.32-52.22Q291.65-52.11 291.92-51.88L291.92-51.88Q291.79-51.57 291.61-51.01Q291.43-50.44 291.25-49.81L291.25-49.81Q291.07-49.10 290.80-48.33L290.80-48.33Q291.38-49.14 292.12-49.97Q292.87-50.80 293.74-51.48Q294.62-52.15 295.61-52.58Q296.59-53.00 297.63-53.00L297.63-53.00Q298.48-53.00 299.15-52.51Q299.83-52.02 300.21-51.14Q300.59-50.26 300.66-49.05Q300.73-47.84 300.32-46.40L300.32-46.40L299.83-44.42Q299.60-43.48 299.27-42.20Q298.93-40.92 298.44-39.39L298.44-39.39Q298.17-38.40 298.23-37.69Q298.30-36.97 299.11-36.97L299.11-36.97Q299.92-36.97 301.15-37.96Q302.39-38.94 303.65-40.34Q304.90-41.73 306.03-43.19Q307.15-44.65 307.73-45.55L307.73-45.55Q308.14-46.13 308.50-46.31Q308.86-46.49 309.06-46.36Q309.26-46.22 309.26-45.75Q309.26-45.28 308.90-44.56L308.90-44.56Q308.59-43.93 307.94-42.90Q307.29-41.86 306.39-40.70Q305.49-39.53 304.45-38.34Q303.42-37.15 302.30-36.18Q301.18-35.22 300.08-34.61Q298.97-34.00 297.99-34.00ZM322.47-46.49L322.47-46.49Q322.65-46.76 322.94-46.83Q323.23-46.90 323.41-46.76Q323.59-46.63 323.61-46.31Q323.64-46.00 323.37-45.46L323.37-45.46Q322.47-43.75 321.01-41.77Q319.55-39.80 317.93-38.07Q316.31-36.34 314.79-35.22Q313.26-34.09 312.23-34.09L312.23-34.09Q310.74-34.09 309.76-34.68Q308.77-35.26 308.21-36.11Q307.64-36.97 307.42-37.98Q307.20-38.99 307.29-39.84L307.29-39.84Q307.33-40.56 307.60-42.43Q307.87-44.29 308.32-46.74Q308.77-49.19 309.33-51.99Q309.89-54.80 310.52-57.41L310.52-57.41Q309.76-57.32 308.99-57.23Q308.23-57.14 307.60-57.14L307.60-57.14Q306.16-57.14 304.88-57.47Q303.60-57.81 302.97-58.13L302.97-58.13Q302.61-58.31 302.66-58.64Q302.70-58.98 302.93-59.32Q303.15-59.65 303.49-59.90Q303.83-60.15 304.10-60.15L304.10-60.15Q304.95-60.06 305.94-59.99Q306.93-59.92 308.09-59.97L308.09-59.97Q308.95-60.01 309.73-60.10Q310.52-60.19 311.28-60.33L311.28-60.33Q311.87-62.48 312.43-64.08Q312.99-65.67 313.44-66.30L313.44-66.30Q313.57-66.53 314.05-66.68Q314.52-66.84 315.06-66.91Q315.60-66.98 316.09-66.91Q316.58-66.84 316.81-66.57L316.81-66.57Q317.03-66.21 316.99-64.73Q316.94-63.25 316.49-60.96L316.49-60.96Q318.38-60.96 319.84-60.75Q321.30-60.55 322.33-60.30Q323.37-60.06 324.00-59.81Q324.62-59.56 324.94-59.47L324.94-59.47Q325.25-59.38 325.28-59.02Q325.30-58.66 325.14-58.28Q324.98-57.90 324.62-57.63Q324.27-57.36 323.82-57.45L323.82-57.45Q323.37-57.50 322.81-57.63Q322.24-57.77 321.46-57.86Q320.67-57.95 319.59-58.04Q318.52-58.13 317.08-58.13L317.08-58.13Q316.81-58.13 316.47-58.10Q316.13-58.08 315.78-58.08L315.78-58.08Q315.60-57.36 315.44-56.67Q315.28-55.97 315.01-55.21L315.01-55.21Q314.43-53.41 313.66-51.30L313.66-51.30Q312.99-49.46 312.05-47.07Q311.10-44.69 309.94-42.00L309.94-42.00Q309.67-40.07 310.00-39.06Q310.34-38.05 310.83-37.60L310.83-37.60Q311.42-37.10 312.27-37.06L312.27-37.06Q312.95-36.97 313.91-37.53Q314.88-38.09 315.91-39.03Q316.94-39.98 318.00-41.10Q319.05-42.22 319.95-43.30Q320.85-44.38 321.53-45.26Q322.20-46.13 322.47-46.49ZM342.95-45.01L342.95-45.01Q343.27-45.37 343.60-45.39Q343.94-45.41 344.14-45.21Q344.35-45.01 344.32-44.60Q344.30-44.20 343.94-43.71L343.94-43.71Q343.09-42.54 341.96-41.30Q340.84-40.07 339.56-38.90Q338.28-37.73 336.98-36.70Q335.68-35.66 334.46-34.99L334.46-34.99Q333.12-34.23 332.19-34.23Q331.27-34.23 330.37-35.40L330.37-35.40Q329.57-36.43 329.59-37.62Q329.61-38.81 330.11-40.61L330.11-40.61Q330.42-41.73 330.98-43.28Q331.54-44.83 331.88-46.27Q332.22-47.70 332.08-48.71Q331.95-49.73 330.91-49.73L330.91-49.73Q330.20-49.73 329.36-49.23Q328.53-48.74 327.70-47.95Q326.87-47.16 326.11-46.18Q325.34-45.19 324.76-44.24L324.76-44.24Q324.40-42.49 324.04-40.79L324.04-40.79Q323.73-39.35 323.39-37.66Q323.05-35.98 322.74-34.68L322.74-34.68Q322.47-34.45 322.15-34.36Q321.84-34.27 321.57-34.27L321.57-34.27Q321.26-34.27 320.94-34.32L320.94-34.32Q320.58-34.41 320.27-34.59L320.27-34.59Q320.00-34.77 319.73-35.06Q319.46-35.35 319.32-35.84L319.32-35.84Q321.35-44.15 322.51-49.19Q323.68-54.22 324.31-56.87L324.31-56.87Q325.03-60.01 325.30-61.23L325.30-61.23Q325.43-62.08 325.52-62.89L325.52-62.89Q325.61-63.61 325.61-64.37Q325.61-65.13 325.48-65.76L325.48-65.76Q325.84-65.99 326.26-66.12Q326.69-66.26 327.10-66.35L327.10-66.35Q327.59-66.48 328.08-66.57L328.08-66.57Q328.58-66.66 328.98-66.66L328.98-66.66Q329.34-66.66 329.66-66.59Q329.97-66.53 330.06-66.30L330.06-66.30Q330.33-66.08 330.31-65.40Q330.29-64.73 330.20-64.01L330.20-64.01Q330.02-63.16 329.79-62.17L329.79-62.17Q328.85-58.53 327.68-55.09Q326.51-51.66 325.52-47.75L325.52-47.75Q326.11-48.65 326.92-49.59Q327.72-50.53 328.69-51.32Q329.66-52.11 330.73-52.62Q331.81-53.14 333.03-53.14L333.03-53.14Q333.65-53.14 334.22-52.94Q334.78-52.73 335.20-52.26Q335.63-51.79 335.86-51.01Q336.08-50.22 336.04-49.05L336.04-49.05Q336.04-48.33 335.88-47.57Q335.72-46.81 335.45-45.88Q335.18-44.96 334.75-43.84Q334.33-42.72 333.74-41.23L333.74-41.23Q333.34-40.20 333.12-39.48Q332.89-38.76 333.20-38.23L333.20-38.23Q333.61-37.51 334.80-37.89Q335.99-38.27 338.37-40.20L338.37-40.20Q338.91-40.65 339.58-41.32Q340.26-42.00 340.89-42.69Q341.52-43.39 342.05-44.02Q342.59-44.65 342.95-45.01ZM346.77-34.41L346.77-34.41Q345.06-34.41 343.99-34.95Q342.91-35.48 342.30-36.27Q341.70-37.06 341.45-37.98Q341.20-38.90 341.20-39.66L341.20-39.66Q341.20-41.01 341.43-42.52Q341.65-44.02 341.96-45.30Q342.28-46.58 342.53-47.48Q342.77-48.38 342.86-48.60L342.86-48.60Q343.27-49.90 343.92-50.87Q344.57-51.84 345.74-52.20L345.74-52.20Q346.19-52.29 346.68-52.38L346.68-52.38Q347.09-52.42 347.51-52.42Q347.94-52.42 348.30-52.29L348.30-52.29Q347.09-49.19 346.39-47.12Q345.69-45.05 345.33-43.75L345.33-43.75Q344.93-42.27 344.84-41.37L344.84-41.37Q344.62-39.35 345.20-38.31Q345.78-37.28 347.58-37.28L347.58-37.28Q348.75-37.28 349.83-38.16Q350.90-39.03 351.80-40.43L351.80-40.43Q351.67-41.15 351.67-41.91L351.67-41.91Q351.67-43.35 351.91-44.72Q352.16-46.09 352.50-47.28Q352.84-48.47 353.22-49.41Q353.60-50.35 353.87-50.89L353.87-50.89Q354.36-51.97 354.77-52.22Q355.17-52.47 356.07-52.51L356.07-52.51Q356.43-52.56 356.68-52.53Q356.92-52.51 357.10-52.47L357.10-52.47Q357.64-52.33 357.64-51.93L357.64-51.93Q357.64-51.21 357.55-49.77Q357.46-48.33 357.01-46.81L357.01-46.81Q356.70-45.55 356.41-44.67Q356.12-43.80 355.85-43.19Q355.58-42.58 355.31-42.20Q355.04-41.82 354.81-41.50L354.81-41.50Q354.90-40.16 355.04-39.35Q355.17-38.54 355.37-38.11Q355.58-37.69 355.87-37.53Q356.16-37.37 356.52-37.37L356.52-37.37Q357.15-37.37 358.00-37.98Q358.86-38.58 359.78-39.51Q360.70-40.43 361.62-41.53Q362.54-42.63 363.30-43.62Q364.07-44.60 364.61-45.35Q365.14-46.09 365.28-46.27L365.28-46.27Q365.59-46.67 365.89-46.76Q366.18-46.85 366.36-46.69Q366.54-46.54 366.56-46.20Q366.58-45.86 366.36-45.46L366.36-45.46Q365.46-43.75 364.13-41.84Q362.81-39.93 361.30-38.31Q359.80-36.70 358.27-35.62Q356.74-34.54 355.40-34.54L355.40-34.54Q354.18-34.54 353.49-35.37Q352.79-36.20 352.30-37.78L352.30-37.78Q351.26-36.16 349.87-35.28Q348.48-34.41 346.77-34.41ZM369.10-36.65L369.10-36.65Q369.37-36.47 369.79-36.47Q370.22-36.47 370.65-36.65Q371.07-36.83 371.46-37.15Q371.84-37.46 372.02-37.96L372.02-37.96Q372.20-38.45 372.02-39.37Q371.84-40.29 371.46-41.35Q371.07-42.40 370.62-43.48Q370.18-44.56 369.86-45.46L369.86-45.46Q369.59-46.13 369.41-46.72L369.41-46.72Q369.23-47.21 369.08-47.68Q368.92-48.15 368.83-48.33L368.83-48.33Q368.60-47.97 368.04-47.16Q367.48-46.36 366.83-45.48Q366.18-44.60 365.59-43.86Q365.01-43.12 364.79-42.85L364.79-42.85Q364.43-42.45 364.09-42.38Q363.75-42.31 363.53-42.52Q363.30-42.72 363.28-43.10Q363.26-43.48 363.62-44.02L363.62-44.02Q363.89-44.38 364.43-45.17Q364.96-45.95 365.50-46.78Q366.04-47.61 366.49-48.27Q366.94-48.92 366.99-49.05L366.99-49.05Q367.08-49.41 366.74-49.99Q366.40-50.58 366.63-51.34L366.63-51.34Q366.81-51.97 367.44-52.80Q368.06-53.63 368.92-54.31Q369.77-54.98 370.67-55.32Q371.57-55.65 372.29-55.30L372.29-55.30Q372.87-54.94 373.23-54.51Q373.59-54.08 373.50-53.63L373.50-53.63Q373.41-53.41 373.23-53.05L373.23-53.05Q373.05-52.69 372.69-52.17Q372.33-51.66 371.66-50.85L371.66-50.85Q371.79-49.81 372.04-48.96Q372.29-48.11 372.51-47.48L372.51-47.48Q372.78-46.72 373.10-46.09L373.10-46.09Q373.50-45.28 373.95-44.42Q374.40-43.57 374.76-42.74Q375.12-41.91 375.34-41.19Q375.57-40.47 375.48-39.98L375.48-39.98Q375.34-39.21 374.69-38.14Q374.04-37.06 373.07-36.05Q372.11-35.04 370.87-34.32Q369.64-33.60 368.29-33.60L368.29-33.60Q367.35-33.60 366.47-34.18Q365.59-34.77 364.99-35.55Q364.38-36.34 364.09-37.10Q363.80-37.87 364.02-38.27L364.02-38.27Q364.29-38.81 364.52-39.12Q364.74-39.44 365.19-39.84L365.19-39.84Q365.37-39.98 365.64-40.16L365.64-40.16Q365.86-40.29 366.27-40.43Q366.67-40.56 367.21-40.74L367.21-40.74Q367.66-39.35 368.02-38.56Q368.38-37.78 368.60-37.33L368.60-37.33Q368.87-36.83 369.10-36.65ZM388.82-61.58L388.82-61.58Q388.68-61.09 388.30-60.62Q387.92-60.15 387.45-59.85Q386.98-59.56 386.48-59.47Q385.99-59.38 385.67-59.65L385.67-59.65Q384.73-60.37 384.69-61.20Q384.64-62.03 385.09-62.77Q385.54-63.52 386.21-64.03Q386.89-64.55 387.38-64.64L387.38-64.64Q387.87-64.73 388.21-64.44Q388.55-64.15 388.73-63.67Q388.91-63.20 388.93-62.62Q388.95-62.03 388.82-61.58ZM382.62-52.02L382.62-52.02Q382.84-52.29 383.47-52.47Q384.10-52.65 384.78-52.76Q385.45-52.87 386.01-52.89Q386.57-52.91 386.66-52.87L386.66-52.87Q386.71-52.82 386.44-51.93Q386.17-51.03 385.76-49.81Q385.36-48.60 384.91-47.32Q384.46-46.04 384.24-45.23L384.24-45.23Q384.01-44.42 383.70-43.41Q383.38-42.40 383.14-41.44Q382.89-40.47 382.80-39.62Q382.71-38.76 382.93-38.31L382.93-38.31Q383.16-37.78 383.43-37.57Q383.70-37.37 384.01-37.37L384.01-37.37Q384.91-37.37 386.28-38.36Q387.65-39.35 389.07-40.72Q390.48-42.09 391.69-43.50Q392.91-44.92 393.49-45.77L393.49-45.77Q393.85-46.22 394.23-46.36Q394.61-46.49 394.86-46.31Q395.11-46.13 395.13-45.73Q395.15-45.32 394.84-44.78L394.84-44.78Q394.12-43.53 392.73-41.80Q391.33-40.07 389.76-38.47Q388.19-36.88 386.68-35.75Q385.18-34.63 384.24-34.59L384.24-34.59Q383.47-34.54 382.73-34.83Q381.99-35.13 381.38-35.64Q380.78-36.16 380.37-36.85Q379.97-37.55 379.92-38.31L379.92-38.31Q379.79-39.44 379.92-41.39Q380.06-43.35 380.42-45.39Q380.78-47.43 381.34-49.28Q381.90-51.12 382.62-52.02ZM414.60-44.06L414.60-44.06Q413.97-43.17 412.99-41.84Q412.00-40.52 410.94-39.19Q409.89-37.87 408.88-36.77Q407.87-35.66 407.19-35.22L407.19-35.22Q406.74-34.95 406.16-34.77Q405.57-34.59 404.97-34.54Q404.36-34.50 403.82-34.61Q403.28-34.72 402.88-34.99L402.88-34.99Q402.47-35.31 402.20-35.89L402.20-35.89Q401.98-36.38 401.78-37.19Q401.58-38.00 401.62-39.21L401.62-39.21Q400.54-37.42 399.24-36.45Q397.94-35.48 396.77-35.04L396.77-35.04Q395.42-34.54 394.07-34.45L394.07-34.45Q393.45-34.45 392.73-34.88Q392.01-35.31 391.51-36.23Q391.02-37.15 390.88-38.61Q390.75-40.07 391.24-42.09L391.24-42.09Q391.87-44.83 393.24-47.07Q394.61-49.32 396.23-50.92Q397.85-52.51 399.42-53.32Q400.99-54.13 402.03-54.04L402.03-54.04Q403.24-53.81 404.00-53.32L404.00-53.32Q404.63-52.87 404.83-51.99Q405.04-51.12 404.09-49.68L404.09-49.68Q404.72-49.81 405.15-49.86Q405.57-49.90 405.80-49.90L405.80-49.90Q406.07-49.90 406.16-49.86L406.16-49.86Q406.20-49.77 406.20-49.48Q406.20-49.19 406.07-48.42Q405.93-47.66 405.66-46.36Q405.39-45.05 404.95-42.99L404.95-42.99Q404.86-42.58 404.79-42.25Q404.72-41.91 404.65-41.57Q404.59-41.23 404.50-40.79Q404.41-40.34 404.27-39.66L404.27-39.66Q404.23-39.26 404.25-38.79Q404.27-38.31 404.41-37.91Q404.54-37.51 404.83-37.26Q405.12-37.01 405.66-37.01L405.66-37.01Q406.11-37.01 406.83-37.57Q407.55-38.14 408.36-39.01Q409.17-39.89 410.04-40.94Q410.92-42.00 411.68-42.99Q412.45-43.98 413.05-44.74Q413.66-45.50 413.93-45.86L413.93-45.86Q414.29-46.27 414.65-46.33Q415.01-46.40 415.19-46.13Q415.37-45.86 415.25-45.32Q415.14-44.78 414.60-44.06ZM401.44-42.09L401.44-42.09Q401.67-42.99 401.98-44.20Q402.29-45.41 402.52-46.54Q402.74-47.66 402.86-48.40Q402.97-49.14 402.79-49.10L402.79-49.10Q402.56-49.05 402.29-48.96L402.29-48.96Q402.07-48.87 401.71-48.83Q401.35-48.78 400.99-48.69L400.99-48.69Q401.35-49.41 401.42-49.88Q401.49-50.35 401.44-50.62L401.44-50.62Q401.40-50.94 401.26-51.12L401.26-51.12Q400.77-51.52 399.53-50.47Q398.30-49.41 396.68-46.58L396.68-46.58Q396.01-45.41 395.60-44.09Q395.20-42.76 395.04-41.59Q394.88-40.43 394.97-39.55Q395.06-38.67 395.33-38.40L395.33-38.40Q395.83-37.91 396.45-37.93Q397.08-37.96 397.74-38.29Q398.39-38.63 399.04-39.17Q399.69-39.71 400.21-40.29Q400.72-40.88 401.06-41.37Q401.40-41.86 401.44-42.09ZM417.93-36.65L417.93-36.65Q418.20-36.47 418.62-36.47Q419.05-36.47 419.48-36.65Q419.90-36.83 420.29-37.15Q420.67-37.46 420.85-37.96L420.85-37.96Q421.03-38.45 420.85-39.37Q420.67-40.29 420.29-41.35Q419.90-42.40 419.45-43.48Q419.01-44.56 418.69-45.46L418.69-45.46Q418.42-46.13 418.24-46.72L418.24-46.72Q418.06-47.21 417.91-47.68Q417.75-48.15 417.66-48.33L417.66-48.33Q417.43-47.97 416.87-47.16Q416.31-46.36 415.66-45.48Q415.01-44.60 414.42-43.86Q413.84-43.12 413.62-42.85L413.62-42.85Q413.26-42.45 412.92-42.38Q412.58-42.31 412.36-42.52Q412.13-42.72 412.11-43.10Q412.09-43.48 412.45-44.02L412.45-44.02Q412.72-44.38 413.26-45.17Q413.79-45.95 414.33-46.78Q414.87-47.61 415.32-48.27Q415.77-48.92 415.82-49.05L415.82-49.05Q415.91-49.41 415.57-49.99Q415.23-50.58 415.46-51.34L415.46-51.34Q415.64-51.97 416.27-52.80Q416.89-53.63 417.75-54.31Q418.60-54.98 419.50-55.32Q420.40-55.65 421.12-55.30L421.12-55.30Q421.70-54.94 422.06-54.51Q422.42-54.08 422.33-53.63L422.33-53.63Q422.24-53.41 422.06-53.05L422.06-53.05Q421.88-52.69 421.52-52.17Q421.16-51.66 420.49-50.85L420.49-50.85Q420.62-49.81 420.87-48.96Q421.12-48.11 421.34-47.48L421.34-47.48Q421.61-46.72 421.93-46.09L421.93-46.09Q422.33-45.28 422.78-44.42Q423.23-43.57 423.59-42.74Q423.95-41.91 424.17-41.19Q424.40-40.47 424.31-39.98L424.31-39.98Q424.17-39.21 423.52-38.14Q422.87-37.06 421.90-36.05Q420.94-35.04 419.70-34.32Q418.47-33.60 417.12-33.60L417.12-33.60Q416.18-33.60 415.30-34.18Q414.42-34.77 413.82-35.55Q413.21-36.34 412.92-37.10Q412.63-37.87 412.85-38.27L412.85-38.27Q413.12-38.81 413.35-39.12Q413.57-39.44 414.02-39.84L414.02-39.84Q414.20-39.98 414.47-40.16L414.47-40.16Q414.69-40.29 415.10-40.43Q415.50-40.56 416.04-40.74L416.04-40.74Q416.49-39.35 416.85-38.56Q417.21-37.78 417.43-37.33L417.43-37.33Q417.70-36.83 417.93-36.65ZM448.70-37.19L448.70-37.19Q448.70-38.14 448.90-39.35Q449.10-40.56 449.42-41.84Q449.73-43.12 450.05-44.33Q450.36-45.55 450.59-46.49L450.59-46.49Q450.86-47.66 450.54-48.29Q450.23-48.92 449.46-48.92L449.46-48.92Q449.10-48.92 448.05-48.29Q446.99-47.66 445.76-46.11Q444.52-44.56 443.33-41.93Q442.14-39.30 441.47-35.26L441.47-35.26Q440.61-34.81 439.85-34.68L439.85-34.68Q439.45-34.59 439.13-34.54L439.13-34.54Q438.23-34.50 437.96-34.83Q437.69-35.17 438.05-36.47L438.05-36.47Q438.23-37.10 438.70-38.49Q439.18-39.89 439.62-41.53Q440.07-43.17 440.41-44.81Q440.75-46.45 440.75-47.66L440.75-47.66Q440.75-48.51 440.46-48.83Q440.16-49.14 439.62-49.14L439.62-49.14Q439.22-49.14 438.28-48.69Q437.33-48.24 436.17-46.94Q435.00-45.64 433.85-43.32Q432.71-41.01 431.90-37.33L431.90-37.33L431.90-37.42Q431.81-37.06 431.72-36.70L431.72-36.70Q431.63-36.38 431.58-36.02Q431.54-35.66 431.45-35.35L431.45-35.35L429.20-34.36Q428.98-34.27 428.64-34.23Q428.30-34.18 428.01-34.34Q427.72-34.50 427.59-34.99Q427.45-35.48 427.68-36.47L427.68-36.47L430.51-48.20Q430.64-48.78 430.73-49.32L430.73-49.32Q430.82-49.81 430.84-50.29Q430.87-50.76 430.78-51.07L430.78-51.07Q431.54-51.43 432.12-51.61Q432.71-51.79 433.07-51.88L433.07-51.88Q433.52-52.02 433.83-52.02L433.83-52.02Q435.27-52.02 434.77-49.55L434.77-49.55Q434.59-48.83 434.23-47.43L434.23-47.43Q435.09-48.51 436.05-49.48Q437.02-50.44 438.01-51.21Q439.00-51.97 440.01-52.42Q441.02-52.87 442.01-52.87L442.01-52.87Q442.77-52.87 443.29-52.42Q443.80-51.97 444.09-51.23Q444.39-50.49 444.43-49.48Q444.48-48.47 444.34-47.39L444.34-47.39Q445.06-48.33 445.94-49.30Q446.81-50.26 447.78-51.03Q448.74-51.79 449.78-52.29Q450.81-52.78 451.84-52.78L451.84-52.78Q453.06-52.78 453.71-52.06Q454.36-51.34 454.61-50.22Q454.85-49.10 454.74-47.79Q454.63-46.49 454.36-45.28L454.36-45.28L452.83-39.21Q452.34-36.97 453.78-36.97L453.78-36.97Q454.90-36.97 456.25-38.05Q457.59-39.12 458.87-40.61Q460.15-42.09 461.28-43.66Q462.40-45.23 463.16-46.18L463.16-46.18Q463.43-46.49 463.73-46.54Q464.02-46.58 464.22-46.42Q464.42-46.27 464.44-45.91Q464.47-45.55 464.20-45.01L464.20-45.01Q463.30-43.44 462.00-41.53Q460.69-39.62 459.14-37.96Q457.59-36.29 455.84-35.17Q454.09-34.05 452.20-34.05L452.20-34.05Q451.57-34.05 450.97-34.18Q450.36-34.32 449.84-34.68Q449.33-35.04 449.01-35.64Q448.70-36.25 448.70-37.19Z"></path></g></g></svg>