<svg width="40" height="40" viewBox="0 0 40 40" fill="none" xmlns="http://www.w3.org/2000/svg">
<path d="M11.9997 12.0002L12.405 11.7074C12.278 11.5316 12.0522 11.4577 11.8458 11.5244C11.6395 11.5911 11.4997 11.7833 11.4997 12.0002H11.9997ZM19.9997 38.1668C9.9665 38.1668 1.83301 30.0333 1.83301 20.0002H0.833008C0.833008 30.5856 9.41422 39.1668 19.9997 39.1668V38.1668ZM38.1663 20.0002C38.1663 30.0333 30.0329 38.1668 19.9997 38.1668V39.1668C30.5851 39.1668 39.1663 30.5856 39.1663 20.0002H38.1663ZM19.9997 1.8335C30.0329 1.8335 38.1663 9.96699 38.1663 20.0002H39.1663C39.1663 9.41471 30.5851 0.833496 19.9997 0.833496V1.8335ZM19.9997 0.833496C9.41422 0.833496 0.833008 9.41471 0.833008 20.0002H1.83301C1.83301 9.96699 9.9665 1.8335 19.9997 1.8335V0.833496ZM12.4997 32.0002V12.0002H11.4997V32.0002H12.4997ZM11.5943 12.2929L28.9277 36.2929L29.7384 35.7074L12.405 11.7074L11.5943 12.2929ZM27.4997 10.6668V26.6668H28.4997V10.6668H27.4997Z" fill="#DDDDDD"/>
</svg>
