<svg version="1.1" xmlns="http://www.w3.org/2000/svg" xmlns:xlink="http://www.w3.org/1999/xlink" width="453.21893310546875" height="93.04000091552734"><defs></defs><g transform="translate(-232.5692138671875,40.040000915527344)"><rect fill="rgb(255,255,255)" stroke="none" x="0" y="0" width="453.21893310546875" height="93.04000091552734" fill-opacity="0" transform="translate(232.5692138671875,-40.040000915527344)"></rect><g transform="translate(226.91984900865867,47) rotate(0,0,0) translate(-226.91984900865867,-47) matrix(1,0,-0.10510423526567646,1,226.91984900865867,47)"><path fill="rgb(0,0,0)" fill-opacity="1" d="M9.40-32.08L9.40-32.08Q7.80-28.48 7.80-26.28Q7.80-24.08 9.28-22.16Q10.76-20.24 13.24-20.24L13.24-20.24Q22.76-20.24 32.36-29.60L32.36-29.60Q40.76-37.92 46.44-50Q52.12-62.08 52.12-71.28L52.12-71.28Q52.12-72.16 52.04-72.64L52.04-72.64Q50.44-71.92 48.20-71.60L48.20-71.60Q46.60-63.60 42.88-54.68Q39.16-45.76 33.76-37.24Q28.36-28.72 22.68-24.88L22.68-24.88Q19.48-22.88 17.08-22.88L17.08-22.88Q16.28-22.88 16.28-23.32Q16.28-23.76 17.20-23.92Q18.12-24.08 20.12-24.72L20.12-24.72Q26.76-27.68 33.64-38.48L33.64-38.48Q43.56-54.16 47.16-71.44L47.16-71.44L37.32-70.24Q29.08-69.44 24.60-68.32L24.60-68.32Q15.56-65.92 15.56-61.28L15.56-61.28Q15.56-57.84 19.08-54.16L19.08-54.16Q22.36-51.04 26.12-50.08L26.12-50.08Q26.60-50 26.60-49.84L26.60-49.84Q26.60-49.52 25.96-49.52L25.96-49.52Q21.56-49.52 17.88-53.20L17.88-53.20Q14.28-56.88 14.28-61.52Q14.28-66.16 21.32-69.36L21.32-69.36Q27.00-72 33.68-73.04Q40.36-74.08 47.88-75.12L47.88-75.12Q48.52-80.08 48.52-86.48L48.52-86.48Q48.52-87.04 49.00-87.04L49.00-87.04Q49.40-87.04 49.40-83Q49.40-78.96 48.84-75.28L48.84-75.28Q50.20-75.52 52.12-76.08L52.12-76.08Q52.52-76.64 53.24-76.64Q53.96-76.64 54.12-75.44L54.12-75.44Q54.36-73.12 56.44-61.60L56.44-61.60Q59.40-44.88 63.48-35.84L63.48-35.84Q65.08-39.36 67.36-51.16Q69.64-62.96 71.48-68.16L71.48-68.16Q75.48-79.36 82.76-83.44L82.76-83.44Q84.92-84.64 87.08-84.64L87.08-84.64Q90.76-84.64 94.12-80.40L94.12-80.40Q97.48-76.40 97.48-72.80L97.48-72.80Q97.48-72.48 97.24-72.48Q97.00-72.48 96.76-73.12L96.76-73.12Q95.80-76.40 93.68-78.60Q91.56-80.80 88.36-80.80L88.36-80.80Q86.68-80.80 84.92-79.92L84.92-79.92Q77.72-76.64 73.32-65.68L73.32-65.68Q71.32-60.64 69.52-53.08Q67.72-45.52 67.40-44.08L67.40-44.08Q65.72-37.68 64.28-34.32L64.28-34.32Q67.56-27.60 71.56-27.60L71.56-27.60Q73.80-27.60 76.28-29.60L76.28-29.60Q78.92-31.68 78.68-31.68L78.68-31.68Q78.84-31.68 78.84-31.32Q78.84-30.96 78.36-30.64L78.36-30.64Q73.72-26 69.36-26Q65.00-26 61.56-30.80L61.56-30.80Q60.68-30.32 59.40-30.32Q58.12-30.32 58.12-31.28L58.12-31.28Q58.12-31.52 59.08-31.72Q60.04-31.92 60.60-32.24L60.60-32.24Q57.16-37.68 55.48-48.32L55.48-48.32Q54.04-62.40 53.80-65.44L53.80-65.44Q51.88-54.56 45.44-43.72Q39.00-32.88 30.40-25.96Q21.80-19.04 12.92-19.04L12.92-19.04Q9.96-19.04 8.12-20.68Q6.28-22.32 6.28-25.52Q6.28-28.72 8.76-32.16L8.76-32.16Q9.00-32.40 9.20-32.40Q9.40-32.40 9.40-32.08ZM106.52-25.68L106.52-25.68Q106.52-25.12 105.12-25.12Q103.72-25.12 100.92-25.40Q98.12-25.68 96.12-25.68L96.12-25.68Q98.84-20.24 98.84-16.24L98.84-16.24Q98.84-7.04 86.84-0.08L86.84-0.08Q76.44 6 66.28 6L66.28 6Q51.48 6 51.48-2.88L51.48-2.88Q51.48-4.32 51.64-5.04L51.64-5.04Q52.12-7.92 55.96-12.40L55.96-12.40Q67.96-26.40 92.20-27.04L92.20-27.04L89.56-33.68Q85.64-30.32 82.44-30.32L82.44-30.32Q79.56-30.32 79.56-33.44L79.56-33.44Q79.56-39.28 86.12-46.40L86.12-46.40Q85.96-48.32 85.96-49.12L85.96-49.12Q85.96-54 87.80-57.52L87.80-57.52Q90.12-62 94.52-62L94.52-62Q95.16-62 96.28-61.84L96.28-61.84Q98.12-61.44 98.96-59.20Q99.80-56.96 99.80-55.96Q99.80-54.96 99.72-54.56L99.72-54.56Q104.52-57.44 104.52-61.52L104.52-61.52Q104.52-62.96 104.84-62.96L104.84-62.96Q105.64-62.96 105.64-60.16L105.64-60.16Q105.64-54.80 99.56-51.92L99.56-51.92Q99.08-47.76 96.52-42.60Q93.96-37.44 91.00-35.04L91.00-35.04Q92.36-32.72 95.40-27.04L95.40-27.04Q106.52-26.80 106.52-25.68ZM95.00-17.60L95.00-17.60Q95.00-20.08 92.76-25.60L92.76-25.60Q80.36-25.04 70.76-20.96L70.76-20.96Q58.60-15.76 55.00-6.24L55.00-6.24Q54.44-4.88 54.44-3.52L54.44-3.52Q54.44 0.40 58.20 2.60Q61.96 4.80 66.20 4.80L66.20 4.80Q74.84 4.80 84.92-2.40Q95.00-9.60 95.00-17.60ZM96.52-55.68L96.52-55.68Q96.52-60.40 94.28-60.40L94.28-60.40Q92.36-60.40 90.60-57.76L90.60-57.76Q87.24-52.88 87.24-48.16L87.24-48.16Q87.24-47.52 87.32-47.28L87.32-47.28Q89.08-49.04 91.64-50.48L91.64-50.48L96.36-53.20Q96.52-54.96 96.52-55.68ZM96.12-50.88L96.12-50.88Q90.28-48.16 87.40-45.52L87.40-45.52Q87.96-41.60 90.36-36.40L90.36-36.40Q92.44-38.32 94.28-43.04Q96.12-47.76 96.12-50.88ZM86.28-44.24L86.28-44.24Q81.80-38.32 81.80-35.68Q81.80-33.04 83.32-33.04L83.32-33.04Q86.28-33.04 89.00-35.20L89.00-35.20Q86.60-41.04 86.28-44.24ZM130.20-34.56L130.20-34.56L130.20-34.40Q127.40-30.56 124.04-30.56Q120.68-30.56 120.68-36.48L120.68-36.48Q120.68-38.88 121.08-43.28L121.08-43.28Q118.04-37.52 111.08-32.08L111.08-32.08Q110.36-31.52 108.36-30L108.36-30Q107.96-29.68 106.96-29.68Q105.96-29.68 105.96-30.16L105.96-30.16Q105.96-33.04 108.56-38.08Q111.16-43.12 111.80-45.32Q112.44-47.52 112.44-51.52L112.44-51.52Q112.12-50.24 109.56-45.84L109.56-45.84Q105.72-39.20 105.24-39.20Q104.76-39.20 104.76-39.52L104.76-39.52L107.16-43.60Q111.00-50.32 112.12-54.88L112.12-54.88Q112.60-56.96 114.04-56.96Q115.48-56.96 115.48-53.32Q115.48-49.68 113.40-43.12L113.40-43.12L110.04-32.64Q116.76-37.76 121.24-45.20L121.24-45.20Q122.04-50.80 123.40-52.56L123.40-52.56Q123.88-53.12 125.20-53.12Q126.52-53.12 126.52-52.24L126.52-52.24Q126.52-49.84 125.00-47.84L125.00-47.84Q123.24-41.84 123.24-36.16L123.24-36.16Q123.24-32.32 125.64-32.32L125.64-32.32Q126.84-32.32 128.08-33.36Q129.32-34.40 129.68-34.72Q130.04-35.04 129.96-35.04L129.96-35.04Q130.20-35.04 130.20-34.56ZM159.16-61.68L159.16-61.68Q159.16-61.44 158.44-61.24Q157.72-61.04 156.92-60.64L156.92-60.64Q153.32-58.08 150.68-46.96L150.68-46.96Q146.68-29.92 146.52-29.52L146.52-29.52Q143.40-18.40 139.80-11.92L139.80-11.92Q134.84-3.12 127.80 0.80L127.80 0.80Q124.52 2.64 120.44 2.64Q116.36 2.64 111.48-1.04Q106.60-4.72 106.60-8.72L106.60-8.72Q106.60-9.04 106.80-9.04Q107.00-9.04 107.24-8.56L107.24-8.56Q110.60-0.16 119.40-0.16L119.40-0.16Q123.88-0.16 127.72-2.32L127.72-2.32Q135.16-6.48 139.32-15.36L139.32-15.36Q141.96-21.36 144.20-32.48L144.20-32.48Q146.12-42.80 147.48-47.76L147.48-47.76L148.84-52.72Q143.80-48.80 136.76-30.24L136.76-30.24Q136.76-30.08 136.28-30.08Q135.80-30.08 135.20-30.68Q134.60-31.28 134.60-31.84L134.60-31.84L135.96-35.20Q137.48-39.68 137.48-48.32L137.48-48.32Q137.48-54.88 134.68-54.88L134.68-54.88Q133.16-54.88 130.92-52.88L130.92-52.88L128.68-50.80Q128.44-50.80 128.44-51Q128.44-51.20 128.60-51.68L128.60-51.68Q129.72-53.44 132.28-55.28Q134.84-57.12 136.60-57.12L136.60-57.12Q139.96-57.12 139.96-50.64L139.96-50.64Q139.96-45.36 137.80-38.96L137.80-38.96Q144.44-51.20 149.08-53.60L149.08-53.60Q150.28-57.92 151.80-59.68L151.80-59.68Q153.80-62.16 157.72-62.16L157.72-62.16Q159.16-62.16 159.16-61.68ZM180.52-40.88L180.52-40.88Q180.60-40.88 180.60-40.64Q180.60-40.40 179.96-39.28L179.96-39.28Q177.48-35.28 172.76-31.88Q168.04-28.48 163.88-28.48L163.88-28.48Q158.20-28.48 158.20-35.84L158.20-35.84Q158.20-38.32 158.76-41.12L158.76-41.12Q158.04-41.76 157.48-42.88L157.48-42.88Q157.56-42.80 157.88-42.68Q158.20-42.56 158.48-42.44Q158.76-42.32 159.08-42.24L159.08-42.24Q159.88-46.16 163.96-50.32Q168.04-54.48 171.88-54.48L171.88-54.48Q172.76-54.48 172.76-54.28Q172.76-54.08 171.64-53.44L171.64-53.44Q168.68-51.84 166.12-48.48L166.12-48.48Q163.40-45.12 162.20-41.76L162.20-41.76L162.36-41.60Q166.20-41.60 170.36-45.28Q174.52-48.96 174.52-52.80L174.52-52.80Q174.52-53.92 173.92-54.92Q173.32-55.92 171.96-55.92Q170.60-55.92 168.56-54.68Q166.52-53.44 166.32-53.44Q166.12-53.44 166.12-53.52L166.12-53.52Q166.12-54.48 168.72-55.52Q171.32-56.56 172.96-56.56Q174.60-56.56 175.80-55.52Q177.00-54.48 177.00-52.64L177.00-52.64Q177.00-48.40 171.76-44.64Q166.52-40.88 161.88-40.48L161.88-40.48Q161.24-38.56 161.24-36.80L161.24-36.80Q161.24-30.16 166.04-30.16L166.04-30.16Q169.72-30.16 173.40-33.08Q177.08-36 179.32-39.76L179.32-39.76Q180.04-40.88 180.52-40.88ZM178.68-29.36L178.68-29.52L183.16-49.76Q182.84-50.88 181.40-54.08L181.40-54.08Q181.40-54.64 182.76-55.12L182.76-55.12Q186.76-56.64 187.92-56.64Q189.08-56.64 189.08-55.92L189.08-55.92Q186.12-48.56 185.00-45.68L185.00-45.68Q185.00-45.44 185.00-45.20L185.00-45.20Q185.00-42.72 184.28-42.72L184.28-42.72Q184.12-42.72 184.04-42.96L184.04-42.96Q182.36-37.92 181.72-35.60L181.72-35.60Q185.40-41.60 189.24-46.08L189.24-46.08Q195.24-53.04 199.16-53.04L199.16-53.04Q201.00-53.04 201.00-51.60L201.00-51.60Q201.00-51.04 196.36-34L196.36-34Q201.00-37.44 203.56-41.36L203.56-41.36Q203.96-41.84 204.16-41.84Q204.36-41.84 204.36-41.60Q204.36-41.36 204.12-40.96L204.12-40.96Q200.60-34.72 195.56-31.04L195.56-31.04Q195.16-30.56 194.56-30.56Q193.96-30.56 193.96-31.28Q193.96-32 194.92-36.72Q195.88-41.44 196.32-43.92Q196.76-46.40 196.92-50.16L196.92-50.16Q193.64-48.56 188.84-43.28Q184.04-38 182.48-35.04Q180.92-32.08 180.48-30.20Q180.04-28.32 179.36-28.32Q178.68-28.32 178.68-29.36L178.68-29.36ZM183.64-51.92L184.36-54.56Q183.96-54.24 182.84-53.76L182.84-53.76L183.64-51.92ZM254.60-56.88L254.60-56.88Q254.60-47.92 250.44-37.84L250.44-37.84Q248.84-33.84 241.72-20.08L241.72-20.08Q241.48-19.84 241.24-19.84L241.24-19.84Q240.60-19.84 240.60-20.28Q240.60-20.72 243.32-28.60Q246.04-36.48 247.56-41.76L247.56-41.76Q249.88-50.48 249.88-56.56L249.88-56.56Q249.88-67.60 244.60-72.24L244.60-72.24Q245.56-67.12 245.56-60.64L245.56-60.64Q245.56-49.20 242.56-36.24Q239.56-23.28 234.36-14.56L234.36-14.56Q234.12-14.16 233.96-14.16Q233.80-14.16 233.80-14.56L233.80-14.56L233.80-14.80Q244.60-36.64 244.60-60.24L244.60-60.24Q244.60-68 243.32-73.20L243.32-73.20Q240.68-74.88 237.24-74.88L237.24-74.88Q229.72-74.88 224.16-68.44Q218.60-62 218.60-54.40L218.60-54.40Q218.60-50.08 220.56-48.16Q222.52-46.24 225.68-46.24Q228.84-46.24 232.12-48.48Q235.40-50.72 237.80-54L237.80-54Q238.04-54.32 238.20-54.32Q238.36-54.32 238.36-54.08Q238.36-53.84 238.20-53.52L238.20-53.52Q236.28-50.32 231.96-47.40Q227.64-44.48 224.68-44.48Q221.72-44.48 219.88-45.76L219.88-45.76Q217.72-47.12 217.04-49.12Q216.36-51.12 216.36-54.64Q216.36-58.16 218.28-62.48L218.28-62.48Q220.92-68.24 227.00-72.12Q233.08-76 239.56-76L239.56-76Q241.08-76 242.60-75.76L242.60-75.76Q240.36-81.92 236.04-82.72L236.04-82.72Q235.64-82.88 235.64-83.12L235.64-83.12Q235.64-83.92 236.76-83.92L236.76-83.92Q241.40-83.92 243.80-75.44L243.80-75.44Q254.60-72.40 254.60-56.88ZM300.04-72.16L300.04-72.16Q300.04-71.28 299.60-68.92Q299.16-66.56 298.68-66.48L298.68-66.48Q298.60-66.56 298.60-66.80Q298.60-67.04 298.96-68.44Q299.32-69.84 299.32-70.72L299.32-70.72Q299.32-76.08 293.80-76.08L293.80-76.08Q291.64-76.08 289.00-74.88L289.00-74.88Q277.00-69.36 263.48-48.16L263.48-48.16Q261.80-45.60 253.80-32.80L253.80-32.80Q244.68-18.56 241.56-18.56L241.56-18.56Q241.32-18.56 241.32-18.96Q241.32-19.36 241.64-19.52L241.64-19.52Q242.12-19.68 243.64-20.64L243.64-20.64Q246.76-23.12 254.20-35.28L254.20-35.28Q264.68-52.88 269.56-59.52L269.56-59.52Q279.88-73.52 290.20-78.32L290.20-78.32Q292.12-79.28 294.52-79.28Q296.92-79.28 298.48-77.24Q300.04-75.20 300.04-72.16ZM292.76-40.08Q293.24-40.72 293.48-40.72Q293.72-40.72 293.72-40.36Q293.72-40 293.40-39.60L293.40-39.60Q286.20-28.88 282.28-28.88L282.28-28.88Q280.12-28.88 279.04-30.92Q277.96-32.96 277.96-35.48Q277.96-38 278.76-41.28L278.76-41.28Q273.72-30.08 268.36-30.08L268.36-30.08Q265.08-30.08 265.08-34.32L265.08-34.32Q265.08-41.12 271.68-48.48Q278.28-55.84 284.84-55.84L284.84-55.84Q287.96-55.84 287.96-53.12L287.96-53.12Q287.96-49.76 283.48-46.40L283.48-46.40Q281.16-40.64 281.16-35.32Q281.16-30 283.16-30L283.16-30Q285.80-30 292.76-40.08L292.76-40.08ZM284.28-49.12L284.28-49.12Q285.56-50.88 285.56-52.64Q285.56-54.40 283.88-54.40L283.88-54.40Q279.88-54.40 273.40-46.52Q266.92-38.64 266.92-34.40L266.92-34.40Q266.92-32.56 268.68-32.56L268.68-32.56Q273.72-32.56 278.44-43.76L278.44-43.76Q277.00-43.36 276.52-43.36Q276.04-43.36 276.04-43.60L276.04-43.60Q276.04-44 277.16-44.40L277.16-44.40L279.64-45.84Q279.80-47.20 281.32-49.40Q282.84-51.60 284.20-51.60L284.20-51.60Q284.68-51.60 284.68-50.96Q284.68-50.32 284.28-49.12ZM291.80-29.36L291.80-29.52L296.28-49.76Q295.96-50.88 294.52-54.08L294.52-54.08Q294.52-54.64 295.88-55.12L295.88-55.12Q299.88-56.64 301.04-56.64Q302.20-56.64 302.20-55.92L302.20-55.92Q299.24-48.56 298.12-45.68L298.12-45.68Q298.12-45.44 298.12-45.20L298.12-45.20Q298.12-42.72 297.40-42.72L297.40-42.72Q297.24-42.72 297.16-42.96L297.16-42.96Q295.48-37.92 294.84-35.60L294.84-35.60Q298.52-41.60 302.36-46.08L302.36-46.08Q308.36-53.04 312.28-53.04L312.28-53.04Q314.12-53.04 314.12-51.60L314.12-51.60Q314.12-51.04 309.48-34L309.48-34Q314.12-37.44 316.68-41.36L316.68-41.36Q317.08-41.84 317.28-41.84Q317.48-41.84 317.48-41.60Q317.48-41.36 317.24-40.96L317.24-40.96Q313.72-34.72 308.68-31.04L308.68-31.04Q308.28-30.56 307.68-30.56Q307.08-30.56 307.08-31.28Q307.08-32 308.04-36.72Q309.00-41.44 309.44-43.92Q309.88-46.40 310.04-50.16L310.04-50.16Q306.76-48.56 301.96-43.28Q297.16-38 295.60-35.04Q294.04-32.08 293.60-30.20Q293.16-28.32 292.48-28.32Q291.80-28.32 291.80-29.36L291.80-29.36ZM296.76-51.92L297.48-54.56Q297.08-54.24 295.96-53.76L295.96-53.76L296.76-51.92ZM344.68-28.80L344.68-28.80L345.96-28.56Q352.12-28.56 359.80-45.92L359.80-45.92Q365.00-57.60 367.80-68.96L367.80-68.96Q355.88-71.52 349.72-71.52L349.72-71.52Q336.84-71.52 336.84-62.64L336.84-62.64Q336.84-56.72 343.64-52L343.64-52Q343.96-51.92 343.96-51.68Q343.96-51.44 343.76-51.44Q343.56-51.44 343.24-51.60L343.24-51.60Q334.28-56.72 334.28-63.84L334.28-63.84Q334.28-68.88 339.16-71.28L339.16-71.28Q342.92-73.04 348.92-73.04Q354.92-73.04 368.20-70.48L368.20-70.48Q368.60-72.48 369.00-76.08L369.00-76.08Q369.16-76.88 369.48-77.12L369.48-77.12Q369.72-77.04 369.72-75.40Q369.72-73.76 369.08-70.32L369.08-70.32L374.92-69.20Q382.04-81.12 390.60-81.12L390.60-81.12Q395.72-81.12 395.72-76.80L395.72-76.80Q395.72-76 395.44-76Q395.16-76 395.16-76.64L395.16-76.64Q395.16-79.76 391.00-79.76L391.00-79.76Q385.24-79.76 378.84-68.48L378.84-68.48Q386.92-66.96 391.16-66.96L391.16-66.96Q399.00-66.96 399.00-70.80L399.00-70.80Q399.00-71.52 398.76-71.88Q398.52-72.24 398.52-72.44Q398.52-72.64 398.68-72.64L398.68-72.64Q399.16-72.64 399.56-71.48Q399.96-70.32 399.96-69.52L399.96-69.52Q399.96-64.64 392.12-64.64L392.12-64.64Q387.64-64.64 377.80-66.80L377.80-66.80Q374.52-60.24 369.36-49.52Q364.20-38.80 359.64-32.80L359.64-32.80Q351.32-21.76 341.96-21.76L341.96-21.76Q338.60-21.76 336.12-23.04L336.12-23.04Q332.84-24.56 332.84-27.76Q332.84-30.96 336.44-32.80L336.44-32.80Q339.16-34.24 342.84-34.24L342.84-34.24Q343.56-34.24 343.56-34Q343.56-33.76 342.84-33.76L342.84-33.76Q339.80-33.76 337.56-32.48L337.56-32.48Q334.68-31.04 334.68-28.36Q334.68-25.68 336.72-24.44Q338.76-23.20 341.24-23.20L341.24-23.20Q348.12-23.20 353.72-29.44L353.72-29.44Q357.80-34.08 361.64-41.60L361.64-41.60Q364.76-48.08 367.84-55.04Q370.92-62 374.04-67.60L374.04-67.60L368.68-68.72Q364.92-52.08 357.40-38.48L357.40-38.48Q351.16-27.60 345.96-27.60L345.96-27.60Q344.28-27.60 344.28-28.40L344.28-28.40Q344.28-28.80 344.68-28.80ZM400.12-34.56L400.12-34.56L400.12-34.40Q397.32-30.56 393.96-30.56Q390.60-30.56 390.60-36.48L390.60-36.48Q390.60-38.88 391.00-43.28L391.00-43.28Q387.96-37.52 381.00-32.08L381.00-32.08Q380.28-31.52 378.28-30L378.28-30Q377.88-29.68 376.88-29.68Q375.88-29.68 375.88-30.16L375.88-30.16Q375.88-33.04 378.48-38.08Q381.08-43.12 381.72-45.32Q382.36-47.52 382.36-51.52L382.36-51.52Q382.04-50.24 379.48-45.84L379.48-45.84Q375.64-39.20 375.16-39.20Q374.68-39.20 374.68-39.52L374.68-39.52L377.08-43.60Q380.92-50.32 382.04-54.88L382.04-54.88Q382.52-56.96 383.96-56.96Q385.40-56.96 385.40-53.32Q385.40-49.68 383.32-43.12L383.32-43.12L379.96-32.64Q386.68-37.76 391.16-45.20L391.16-45.20Q391.96-50.80 393.32-52.56L393.32-52.56Q393.80-53.12 395.12-53.12Q396.44-53.12 396.44-52.24L396.44-52.24Q396.44-49.84 394.92-47.84L394.92-47.84Q393.16-41.84 393.16-36.16L393.16-36.16Q393.16-32.32 395.56-32.32L395.56-32.32Q396.76-32.32 398.00-33.36Q399.24-34.40 399.60-34.72Q399.96-35.04 399.88-35.04L399.88-35.04Q400.12-35.04 400.12-34.56ZM425.00-40.08Q425.48-40.72 425.72-40.72Q425.96-40.72 425.96-40.36Q425.96-40 425.64-39.60L425.64-39.60Q418.44-28.88 414.52-28.88L414.52-28.88Q412.36-28.88 411.28-30.92Q410.20-32.96 410.20-35.48Q410.20-38 411.00-41.28L411.00-41.28Q405.96-30.08 400.60-30.08L400.60-30.08Q397.32-30.08 397.32-34.32L397.32-34.32Q397.32-41.12 403.92-48.48Q410.52-55.84 417.08-55.84L417.08-55.84Q420.20-55.84 420.20-53.12L420.20-53.12Q420.20-49.76 415.72-46.40L415.72-46.40Q413.40-40.64 413.40-35.32Q413.40-30 415.40-30L415.40-30Q418.04-30 425.00-40.08L425.00-40.08ZM416.52-49.12L416.52-49.12Q417.80-50.88 417.80-52.64Q417.80-54.40 416.12-54.40L416.12-54.40Q412.12-54.40 405.64-46.52Q399.16-38.64 399.16-34.40L399.16-34.40Q399.16-32.56 400.92-32.56L400.92-32.56Q405.96-32.56 410.68-43.76L410.68-43.76Q409.24-43.36 408.76-43.36Q408.28-43.36 408.28-43.60L408.28-43.60Q408.28-44 409.40-44.40L409.40-44.40L411.88-45.84Q412.04-47.20 413.56-49.40Q415.08-51.60 416.44-51.60L416.44-51.60Q416.92-51.60 416.92-50.96Q416.92-50.32 416.52-49.12ZM424.04-29.36L424.04-29.52L428.52-49.76Q428.20-50.88 426.76-54.08L426.76-54.08Q426.76-54.64 428.12-55.12L428.12-55.12Q432.12-56.64 433.28-56.64Q434.44-56.64 434.44-55.92L434.44-55.92Q431.48-48.56 430.36-45.68L430.36-45.68Q430.36-45.44 430.36-45.20L430.36-45.20Q430.36-42.72 429.64-42.72L429.64-42.72Q429.48-42.72 429.40-42.96L429.40-42.96Q427.72-37.92 427.08-35.60L427.08-35.60Q430.76-41.60 434.60-46.08L434.60-46.08Q440.60-53.04 444.52-53.04L444.52-53.04Q446.36-53.04 446.36-51.60L446.36-51.60Q446.36-51.04 441.72-34L441.72-34Q446.36-37.44 448.92-41.36L448.92-41.36Q449.32-41.84 449.52-41.84Q449.72-41.84 449.72-41.60Q449.72-41.36 449.48-40.96L449.48-40.96Q445.96-34.72 440.92-31.04L440.92-31.04Q440.52-30.56 439.92-30.56Q439.32-30.56 439.32-31.28Q439.32-32 440.28-36.72Q441.24-41.44 441.68-43.92Q442.12-46.40 442.28-50.16L442.28-50.16Q439.00-48.56 434.20-43.28Q429.40-38 427.84-35.04Q426.28-32.08 425.84-30.20Q425.40-28.32 424.72-28.32Q424.04-28.32 424.04-29.36L424.04-29.36ZM429.00-51.92L429.72-54.56Q429.32-54.24 428.20-53.76L428.20-53.76L429.00-51.92Z"></path></g></g></svg>