<svg width="40" height="40" viewBox="0 0 40 40" fill="none" xmlns="http://www.w3.org/2000/svg">
<path d="M33.333 21.3335V20.8891C33.333 18.9254 31.7411 17.3335 29.7774 17.3335H26.6663C24.4572 17.3335 22.6663 19.1244 22.6663 21.3335C22.6663 23.5426 24.4572 25.3335 26.6663 25.3335H29.333C31.5421 25.3335 33.333 27.1244 33.333 29.3335C33.333 31.5426 31.5421 33.3335 29.333 33.3335H26.6663C24.4572 33.3335 22.6663 31.5426 22.6663 29.3335M17.333 16.0002V29.3335C17.333 31.5426 15.5421 33.3335 13.333 33.3335C11.1239 33.3335 9.33301 31.5426 9.33301 29.3335M1.33301 1.3335H38.6663V38.6668H1.33301V1.3335Z" stroke="#DDDDDD"/>
</svg>
