<svg width="512" height="512" viewBox="0 0 512 512" fill="none" xmlns="http://www.w3.org/2000/svg">
<path d="M407.72 224C404.32 224 392.93 224.1 389.72 224.3L324.82 226C324.483 226.021 324.146 225.948 323.848 225.789C323.55 225.63 323.301 225.391 323.13 225.1L193.55 67.56C192.764 66.5196 191.761 65.6624 190.611 65.0477C189.462 64.433 188.192 64.0755 186.89 64H160L233 225C233.174 225.369 233.249 225.776 233.218 226.182C233.187 226.589 233.051 226.98 232.823 227.318C232.595 227.656 232.283 227.929 231.918 228.11C231.553 228.291 231.147 228.373 230.74 228.35L109.05 230.15C107.784 230.188 106.526 229.928 105.379 229.389C104.233 228.85 103.229 228.049 102.45 227.05L65.45 182.05C62.45 178.15 56.83 176.05 51.94 176.05H33.08C31.79 176.05 31.98 177.26 32.33 178.48L52.17 249.9C53.6697 253.725 53.6697 257.975 52.17 261.8L32.31 333C31.72 334.95 31.79 336 34.08 336H52C60.14 336 61.25 334.94 65.41 329.7L103.11 284C103.896 283.009 104.901 282.213 106.046 281.675C107.191 281.137 108.445 280.872 109.71 280.9L230.39 283.6C230.829 283.61 231.26 283.727 231.644 283.941C232.027 284.155 232.353 284.46 232.593 284.828C232.832 285.197 232.978 285.618 233.018 286.056C233.057 286.494 232.989 286.934 232.82 287.34L160 448H186.64C187.939 447.924 189.207 447.568 190.355 446.955C191.503 446.342 192.504 445.487 193.29 444.45L323.14 287C323.53 286.4 325.14 286.1 325.83 286.1L389.73 287.8C393.03 288 404.32 288.1 407.73 288.1C452 288.1 480 275.93 480 256C480 236.07 452.12 224 407.72 224Z" stroke="white" stroke-width="32" stroke-linecap="round" stroke-linejoin="round"/>
</svg>
